<svg id="레이어_1" data-name="레이어 1" xmlns="http://www.w3.org/2000/svg" viewBox="0 0 264 22"><defs><style>.cls-1{fill:#333;}</style></defs><title>logo_black</title><path class="cls-1" d="M18.86,14.65a8.54,8.54,0,0,1-.7,3.59,6.34,6.34,0,0,1-2,2.48,9.24,9.24,0,0,1-3.27,1.43,19,19,0,0,1-4.41.46c-.78,0-1.58,0-2.4-.11s-1.61-.17-2.37-.28S2.24,22,1.6,21.86.43,21.62,0,21.51v-4.9c.44.18.91.35,1.43.53s1.1.33,1.74.48,1.35.25,2.12.35a22.32,22.32,0,0,0,2.56.13,8.54,8.54,0,0,0,2.52-.32A4.11,4.11,0,0,0,12,16.86a3.19,3.19,0,0,0,.86-1.37,5.65,5.65,0,0,0,.25-1.73V1.5h5.77Z" transform="translate(0 -0.96)"/><path class="cls-1" d="M48.48,21.34a31.46,31.46,0,0,1-5.26,1.22,37.93,37.93,0,0,1-5.37.37,24.08,24.08,0,0,1-6.24-.73A13.47,13.47,0,0,1,27,20.06a9.38,9.38,0,0,1-2.85-3.42,10.36,10.36,0,0,1-1-4.57,9.89,9.89,0,0,1,1-4.4A10.42,10.42,0,0,1,27,4.15a13.33,13.33,0,0,1,4.39-2.34A18.12,18.12,0,0,1,37.09,1a17.6,17.6,0,0,1,5.33.77A11.62,11.62,0,0,1,46.58,4a10.28,10.28,0,0,1,2.7,3.71,12.6,12.6,0,0,1,1,5.07v1.4H29.14A5,5,0,0,0,30.07,16a5.3,5.3,0,0,0,1.75,1.4,10.21,10.21,0,0,0,2.72.89,19.51,19.51,0,0,0,3.85.32,24.66,24.66,0,0,0,3.12-.19,24.73,24.73,0,0,0,2.85-.5,23.31,23.31,0,0,0,2.39-.69,10.48,10.48,0,0,0,1.73-.76Zm-4-11.29A4.63,4.63,0,0,0,44,8.45,4.17,4.17,0,0,0,42.76,7a6.94,6.94,0,0,0-2.25-1.1,11.69,11.69,0,0,0-3.46-.43,10.52,10.52,0,0,0-3.36.47,8.39,8.39,0,0,0-2.38,1.17,5.88,5.88,0,0,0-1.49,1.5,4.61,4.61,0,0,0-.68,1.49Z" transform="translate(0 -0.96)"/><path class="cls-1" d="M82.4,12a10.74,10.74,0,0,1-1,4.75,9.43,9.43,0,0,1-2.9,3.44,13.43,13.43,0,0,1-4.58,2.09,23.8,23.8,0,0,1-6,.7,24,24,0,0,1-6.05-.7,13.53,13.53,0,0,1-4.6-2.09,9.32,9.32,0,0,1-2.93-3.44,10.47,10.47,0,0,1-1-4.75,10.44,10.44,0,0,1,1-4.75,9.32,9.32,0,0,1,2.93-3.44,13.53,13.53,0,0,1,4.6-2.09,26.09,26.09,0,0,1,12.09,0,13.43,13.43,0,0,1,4.58,2.09,9.43,9.43,0,0,1,2.9,3.44A10.71,10.71,0,0,1,82.4,12Zm-5.85,0a7.24,7.24,0,0,0-.38-2.33,5,5,0,0,0-1.35-2.09A7.26,7.26,0,0,0,72.16,6a13.58,13.58,0,0,0-4.29-.57,15.63,15.63,0,0,0-3.07.26,9.48,9.48,0,0,0-2.29.74,6.31,6.31,0,0,0-1.62,1.1,5.68,5.68,0,0,0-1,1.35,5.28,5.28,0,0,0-.55,1.51A7.41,7.41,0,0,0,59.13,12a7.53,7.53,0,0,0,.17,1.56A5.34,5.34,0,0,0,59.85,15a5.63,5.63,0,0,0,1,1.34,6.29,6.29,0,0,0,1.62,1.09,10,10,0,0,0,2.29.73,16.44,16.44,0,0,0,3.07.26,13.27,13.27,0,0,0,4.29-.58,7.11,7.11,0,0,0,2.66-1.5,5,5,0,0,0,1.35-2.09A7.24,7.24,0,0,0,76.55,12Z" transform="translate(0 -0.96)"/><path class="cls-1" d="M107.27,22.37V10.67a9.89,9.89,0,0,0-.21-2.12,3.43,3.43,0,0,0-2.29-2.67,7.35,7.35,0,0,0-2.55-.37,10.6,10.6,0,0,0-2.49.31,17.59,17.59,0,0,0-2.58.83,17.81,17.81,0,0,0-2.44,1.2,16.13,16.13,0,0,0-2.06,1.42v13.1H86.87V1.5h5.78V4.35c.73-.4,1.5-.81,2.32-1.21a23.11,23.11,0,0,1,2.62-1.08,19.74,19.74,0,0,1,2.94-.79A17.41,17.41,0,0,1,103.82,1a13.44,13.44,0,0,1,3.87.51,8.49,8.49,0,0,1,2.9,1.45,6.3,6.3,0,0,1,1.81,2.26,6.87,6.87,0,0,1,.63,3V22.37Z" transform="translate(0 -0.96)"/><path class="cls-1" d="M132.63,1a30.65,30.65,0,0,1,5.85.53,33.78,33.78,0,0,1,5,1.34V7.94a17.88,17.88,0,0,0-2-.94A19.22,19.22,0,0,0,139,6.19a24.32,24.32,0,0,0-2.8-.56,22.72,22.72,0,0,0-3.15-.21,19.7,19.7,0,0,0-3.58.28,12.39,12.39,0,0,0-2.62.78,6.53,6.53,0,0,0-1.8,1.13A5.61,5.61,0,0,0,124,9a5.06,5.06,0,0,0-.56,1.48,7,7,0,0,0-.16,1.48,8.51,8.51,0,0,0,.13,1.35,5.62,5.62,0,0,0,.5,1.46,5.94,5.94,0,0,0,1,1.4,6.28,6.28,0,0,0,1.71,1.18,10.57,10.57,0,0,0,2.53.83,17.17,17.17,0,0,0,3.52.31q1,0,1.8-.06a13.22,13.22,0,0,0,1.39-.17c.42-.07.82-.15,1.19-.25l1.14-.32V15.15H131.7V10.58H144V21.25q-1.16.38-2.58.69c-.95.21-1.93.38-2.94.53s-2,.26-3.05.34-2,.12-2.88.12a29.26,29.26,0,0,1-4-.27,19.66,19.66,0,0,1-3.61-.84,14.54,14.54,0,0,1-3-1.45,9.69,9.69,0,0,1-2.35-2.1A8.94,8.94,0,0,1,118,15.48a10.81,10.81,0,0,1-.54-3.53A10.38,10.38,0,0,1,118,8.42a8.88,8.88,0,0,1,1.57-2.79A10,10,0,0,1,122,3.53a14.47,14.47,0,0,1,3.1-1.45,20,20,0,0,1,3.62-.84A28.4,28.4,0,0,1,132.63,1Z" transform="translate(0 -0.96)"/><path class="cls-1" d="M148.26,14.44v-5H161v5Z" transform="translate(0 -0.96)"/><path class="cls-1" d="M189.69,21.34a31.23,31.23,0,0,1-5.26,1.22,37.93,37.93,0,0,1-5.37.37,24.19,24.19,0,0,1-6.24-.73,13.42,13.42,0,0,1-4.6-2.14,9.19,9.19,0,0,1-2.85-3.42,10.23,10.23,0,0,1-1-4.57,9.89,9.89,0,0,1,1-4.4,10.45,10.45,0,0,1,2.81-3.52,13.23,13.23,0,0,1,4.39-2.34A18.06,18.06,0,0,1,178.3,1a17.71,17.71,0,0,1,5.34.77A11.71,11.71,0,0,1,187.8,4a10.14,10.14,0,0,1,2.69,3.71,12.6,12.6,0,0,1,1,5.07v1.4h-21.1a5.28,5.28,0,0,0,.93,1.81,5.41,5.41,0,0,0,1.75,1.4,10.34,10.34,0,0,0,2.72.89,19.62,19.62,0,0,0,3.86.32,24.66,24.66,0,0,0,3.12-.19,25.52,25.52,0,0,0,2.85-.5,24.07,24.07,0,0,0,2.39-.69,10.33,10.33,0,0,0,1.72-.76Zm-4-11.29a4.83,4.83,0,0,0-.47-1.6A4.31,4.31,0,0,0,184,7a7,7,0,0,0-2.24-1.1,11.78,11.78,0,0,0-3.46-.43,10.59,10.59,0,0,0-3.37.47,8.45,8.45,0,0,0-2.37,1.17A5.72,5.72,0,0,0,171,8.56a4.88,4.88,0,0,0-.69,1.49Z" transform="translate(0 -0.96)"/><path class="cls-1" d="M201.59,1.5V13.26a9.73,9.73,0,0,0,.21,2.11,3.66,3.66,0,0,0,.75,1.63,3.51,3.51,0,0,0,1.52,1.05,7.34,7.34,0,0,0,2.56.37,10.49,10.49,0,0,0,2.48-.32,16.56,16.56,0,0,0,2.58-.85A18.51,18.51,0,0,0,214.13,16a17.22,17.22,0,0,0,2.08-1.44V1.5H222V22.37h-5.77V19.51c-.73.41-1.5.82-2.32,1.23a23.17,23.17,0,0,1-2.62,1.11,21.41,21.41,0,0,1-2.94.8A16.63,16.63,0,0,1,205,23a13.56,13.56,0,0,1-3.88-.51,8.39,8.39,0,0,1-2.9-1.44,6.41,6.41,0,0,1-1.82-2.26,6.87,6.87,0,0,1-.63-3V1.5Z" transform="translate(0 -0.96)"/><path class="cls-1" d="M248.28,22.37V10.67a10.61,10.61,0,0,0-.2-2.12,3.8,3.8,0,0,0-.76-1.62,3.58,3.58,0,0,0-1.54-1,7.31,7.31,0,0,0-2.55-.37,10.6,10.6,0,0,0-2.49.31,17.86,17.86,0,0,0-2.57.83,16.75,16.75,0,0,0-2.44,1.2,15.58,15.58,0,0,0-2.07,1.42v13.1h-5.78V1.5h5.78V4.35c.73-.4,1.5-.81,2.32-1.21a23.9,23.9,0,0,1,2.62-1.08,20.21,20.21,0,0,1,3-.79A17.33,17.33,0,0,1,244.84,1a13.54,13.54,0,0,1,3.87.51,8.44,8.44,0,0,1,2.89,1.45,6.19,6.19,0,0,1,1.81,2.26,6.88,6.88,0,0,1,.64,3V22.37Z" transform="translate(0 -0.96)"/><path class="cls-1" d="M258.09,22.37V16.9H264v5.47Z" transform="translate(0 -0.96)"/></svg>