<svg id="Layer_1" data-name="Layer 1" xmlns="http://www.w3.org/2000/svg" viewBox="0 0 100 80.01"><defs><style>.cls-1{fill:#333;}</style></defs><path class="cls-1" d="M80,57.46V70H30V35H40v5.78l.73,1.77L52.45,54.22l1.76.74H70.78l1.77-.74L84.27,42.51,99.62,27.15l-3.53-3.53L85,34.71V24.17l-.73-1.77L72.55,10.69,70.78,10H54.21l-1.76.74-10,10-10-10L30.78,10H14.21l-1.77.74L.73,22.4,0,24.17V40.74l.74,1.77L12.44,54.22l1.77.74H25v17.5L27.5,75h20V85H-.37v5H50l2.5-2.5V75h30l2.5-2.5v-9l11.09,11.1,3.54-3.54L84.27,55.69ZM45,25.21,55.25,15h14.5L80,25.21V30H45ZM45,35H80v4.75L69.75,50H55.25L45,39.71ZM25,32.45V50H15.25L5,39.71V25.21L15.25,15h14.5L40,25.21V30H27.5Z" transform="translate(0.37 -9.95)"/></svg>