<svg id="Layer_1" data-name="Layer 1" xmlns="http://www.w3.org/2000/svg" viewBox="0 0 100 80"><defs><style>.cls-1{fill:#333;}</style></defs><path class="cls-1" d="M97.13,10H29.63l-2.5,2.5V25a15,15,0,1,0,5,.87V15h62.5V70H48.52l-9.27-9.27L37.48,60H16.77L15,60.69.36,75.33-.37,77.1V90h5V78.13L17.81,65H36.45L49.63,78.13V90h5V77.1l-.73-1.77L53.52,75H97.13l2.5-2.5v-60Zm-60,30a10,10,0,1,1-10-10A10,10,0,0,1,37.13,40Z" transform="translate(0.37 -9.96)"/><rect class="cls-1" x="65" y="20" width="20" height="5"/><rect class="cls-1" x="50" y="35" width="35" height="5"/></svg>