<svg id="Layer_1" data-name="Layer 1" xmlns="http://www.w3.org/2000/svg" viewBox="0 0 100 100"><defs><style>.cls-1{fill:#333;}</style></defs><path class="cls-1" d="M52.08,60.57h-5v-4.1a11,11,0,0,1,7.21-10.13c3.47-1.38,5.63-4.09,5.63-7.06V31.34H43V41.78H38V28.84l2.5-2.5H62.42l2.5,2.5V39.28c0,5-3.45,9.58-8.79,11.71a6.06,6.06,0,0,0-4.05,5.48Z" transform="translate(0.37 0.04)"/><path class="cls-1" d="M69.3,100H30l-1.76-.74L.36,71.4l-.73-1.77V30.28l.73-1.77L28.19.69,30,0H69.3l1.77.73L98.9,28.51l.73,1.77V69.63L98.9,71.4,71.07,99.22ZM31,95H68.27L94.63,68.6V31.32L68.27,5H31L4.63,31.32V68.6Z" transform="translate(0.37 0.04)"/><rect class="cls-1" x="47.42" y="70.58" width="5" height="5"/></svg>