<svg id="Layer_1" data-name="Layer 1" xmlns="http://www.w3.org/2000/svg" viewBox="0 0 80 100"><defs><style>.cls-1{fill:#333;}</style></defs><path id="패스_94" data-name="패스 94" class="cls-1" d="M87.13.12h-50l-2.5,2.5v17.5H22.17v5H34.63v45h-20V57.62a7.5,7.5,0,0,1,7.5-7.5h2.5v-5h-2.5a12.52,12.52,0,0,0-12.5,12.5v15l2.5,2.5h25l2.5-2.5V25.12h45v45H72.13a12.52,12.52,0,0,0-12.5,12.5v15l2.5,2.5h25l2.5-2.5v-95Zm-47.5,20v-15h45v15Zm45,75h-20V82.62a7.5,7.5,0,0,1,7.5-7.5h12.5Z" transform="translate(-9.63 -0.13)"/></svg>