<svg id="Layer_1" data-name="Layer 1" xmlns="http://www.w3.org/2000/svg" viewBox="0 0 100 80"><defs><style>.cls-1{fill:#333;}</style></defs><path class="cls-1" d="M97.13,25H74.63V12.46L72.13,10h-25a12.46,12.46,0,0,0-10,5.07,12.46,12.46,0,0,0-10-5.07h-25l-2.5,2.5v65L2.13,80h17.5V75h-15V15h22.5a7.51,7.51,0,0,1,7.5,7.5v65l2.5,2.5h60l2.5-2.5v-60ZM69.63,15V25h-10V15Zm-22.5,0h7.5v12.5l2.5,2.5h12.5V65H47.13a12.59,12.59,0,0,0-2.32.23c-.24,0-.46.12-.7.18a10.72,10.72,0,0,0-1.49.46c-.25.1-.49.2-.73.32a11.9,11.9,0,0,0-1.32.71c-.22.14-.43.26-.63.4l-.31.2v-45A7.5,7.5,0,0,1,47.13,15Zm47.5,70h-55v-7.5a7.5,7.5,0,0,1,7.5-7.5h25l2.5-2.5V30h20Z" transform="translate(0.37 -9.96)"/></svg>