<svg id="Layer_1" data-name="Layer 1" xmlns="http://www.w3.org/2000/svg" viewBox="0 0 100 80"><defs><style>.cls-1{fill:#333;}</style></defs><path class="cls-1" d="M74.63,40a10,10,0,1,0-10-10A10,10,0,0,0,74.63,40Zm0-15a5,5,0,1,1-5,5A5,5,0,0,1,74.63,25Z" transform="translate(0.37 -9.96)"/><path class="cls-1" d="M97.13,10h-15v5h12.5V38.3L73.85,59.07,60.46,45.69,58.7,45H25.56l-1.77.73L4.63,64.85V15h62.5V10h-65l-2.5,2.5v75L2.13,90h95l2.5-2.5v-75Zm-92.5,62,22-22H57.66L70.32,62.61,48,85H4.63Zm75,13H55L73.85,66.14l5.78,5.78Zm5,0V70.89l-.73-1.77-6.51-6.51L94.63,45.37V85Z" transform="translate(0.37 -9.96)"/></svg>