<svg id="Layer_1" data-name="Layer 1" xmlns="http://www.w3.org/2000/svg" viewBox="0 0 180 56"><defs><style>.cls-1{fill:#b82830;}</style></defs><path class="cls-1" d="M180,27.79a6.52,6.52,0,0,1-4.12,6.14,27.12,27.12,0,0,1-3.06.83l-22,5.69L129.32,46l-27.2,7c-3.85,1-7.69,2-11.53,3a2.28,2.28,0,0,1-1.27,0l-27.9-7.2L32.2,41.22C23,38.85,13.82,36.51,4.65,34.09A6,6,0,0,1,.18,29.27a6.79,6.79,0,0,1,3.46-7.5,9.28,9.28,0,0,1,2.68-.93l20.45-5.09,32.52-8.1L85,1.27,89.7.1a1.31,1.31,0,0,1,.59,0l13.49,3.35L138,12l18.75,4.66L175,21.19a7.23,7.23,0,0,1,4.86,5.56C180,27.09,180,27.44,180,27.79Z" transform="translate(0 -0.07)"/></svg>