<svg id="Layer_1" data-name="Layer 1" xmlns="http://www.w3.org/2000/svg" viewBox="0 0 132 22"><defs><style>.cls-1{fill:#cfb89f;}</style></defs><path class="cls-1" d="M-.11,7.39v6.39A1,1,0,0,0,1,14.89H5.22c.82,0,1.17-.35,1.17-1.19,0-1.66,0-3.32,0-5a1.24,1.24,0,0,1,.17-.42c.11.12.23.23.33.36s0,.14.06.2c.49,1.82,1,3.64,1.48,5.46a.67.67,0,0,0,.69.59h5.4c.46,0,.55-.13.44-.57-.57-2.19-1.13-4.39-1.69-6.58-.29-1.12-.58-2.23-.86-3.35-.14-.56-.07-.67.43-.92l1.73-.84a.73.73,0,0,0,.5-.82c0-.39,0-.79,0-1.18s-.16-.54-.54-.45a2.67,2.67,0,0,0-.36.14L7.74,2.91A3,3,0,0,1,7,3.12c-.43,0-.62-.12-.63-.57s0-1,0-1.44C6.39.31,6.06,0,5.28,0H1C.22,0-.11.3-.11,1.09Z" transform="translate(0.11 0.03)"/><path class="cls-1" d="M34,10.08v3.64c0,.8.35,1.17,1.14,1.17h4c.79,0,1.15-.37,1.15-1.17,0-1.26,0-2.51,0-3.77,0-.42,0-.84,0-1.26a1.22,1.22,0,0,1,1.06-1.18c.64-.06,1,.35,1,1.12,0,1.72,0,3.44,0,5.16a1,1,0,0,0,1,1.09c1.37,0,2.74,0,4.1,0a1,1,0,0,0,1-1.07c0-1.27,0-2.53,0-3.8a5.58,5.58,0,0,1,.18-1.42A.93.93,0,0,1,50.25,8a1.13,1.13,0,0,1,.5,1.09v4.73a1,1,0,0,0,1,1.07c1.36,0,2.73,0,4.09,0a1,1,0,0,0,1-1.05c0-1.24,0-2.48,0-3.72a5.51,5.51,0,0,0-.24-1.78,4.88,4.88,0,0,0-5.6-2.95A6.46,6.46,0,0,0,48.29,6.7c-.39.28-.66.29-.91,0a4.27,4.27,0,0,0-3.77-1.59,4.49,4.49,0,0,0-2.38.7c-.28.18-.65.3-.84-.07a.82.82,0,0,0-.83-.43H35.08a1,1,0,0,0-1,1.09Z" transform="translate(0.11 0.03)"/><path class="cls-1" d="M59.39,7.43v6.34a1,1,0,0,0,1.08,1.12c1.41,0,2.82,0,4.22,0a1,1,0,0,0,1.06-1.09c0-.89,0-1.78,0-2.66a1.45,1.45,0,0,1,.12-.37c.08.1.2.18.25.29.5,1.07,1,2.14,1.47,3.22a.93.93,0,0,0,1,.63c1.56,0,3.12,0,4.68,0,.8,0,1-.36.73-1.1L71.77,8.36c-.14-.34-.15-.58.27-.71s.84-.3,1.26-.45c1.41-.49,1.11-.39,1.13-1.66,0-.51-.15-.62-.65-.48L70.56,6l-3.94,1.1c-.63.16-.87,0-.87-.66V1.12C65.75.33,65.4,0,64.64,0h-4.1c-.8,0-1.15.35-1.15,1.16Z" transform="translate(0.11 0.03)"/><path class="cls-1" d="M31.73,10.1c0-1.23,0-2.45,0-3.68,0-.8-.34-1.15-1.15-1.15h-4c-.84,0-1.19.36-1.19,1.22,0,1.53,0,3.07,0,4.61a1.09,1.09,0,0,1-.54,1,1.2,1.2,0,0,1-1.82-1c0-1.56,0-3.13,0-4.69,0-.67-.35-1.09-1-1.1-1.47,0-2.93,0-4.39,0a.92.92,0,0,0-1,.92c0,1.5,0,3,.07,4.48a4.36,4.36,0,0,0,4,4.36A4.35,4.35,0,0,0,24.55,14c.42-.38.58-.35.82.19a1.17,1.17,0,0,0,1.15.75h4.14a1,1,0,0,0,1.07-1.11C31.74,12.55,31.73,11.33,31.73,10.1Z" transform="translate(0.11 0.03)"/><path class="cls-1" d="M96.8,10.06v3.72a1,1,0,0,0,1.08,1.11h4.18a1,1,0,0,0,1.09-1.1V9.64a3.05,3.05,0,0,1,.07-.67,1.14,1.14,0,0,1,1.22-1c.58.06.86.47.86,1.23,0,1.53,0,3.05,0,4.57a1,1,0,0,0,1.09,1.14h4a1,1,0,0,0,1.08-1.12c0-1.2,0-2.4,0-3.59a5.93,5.93,0,0,0-.3-1.94A4.75,4.75,0,0,0,106,5.35a4.47,4.47,0,0,0-2,.74c-.41.28-.76.22-.91-.14a1.07,1.07,0,0,0-1.1-.69H97.93c-.77,0-1.12.37-1.13,1.15Z" transform="translate(0.11 0.03)"/><path class="cls-1" d="M131.89,6.47c0-.84-.35-1.2-1.2-1.2h-4c-.74,0-1,.23-1.18,1-.08.35-.24.44-.57.31-.13-.06-.25-.13-.38-.18a8.57,8.57,0,0,0-5.8-.78,10.4,10.4,0,0,0-4.26,1.94,3.25,3.25,0,0,0,.23,5.35,13.13,13.13,0,0,0,1.74,1,8.7,8.7,0,0,0,8.38-.16c.42-.23.66-.08.66.42,0,1.41,0,2.82,0,4.23a1.06,1.06,0,0,1-.54,1,3.59,3.59,0,0,1-1.13.42,30.47,30.47,0,0,1-8.74,0,.69.69,0,0,0-.89.72c0,.6.2.92.79,1,1.63.19,3.27.44,4.9.48A48.84,48.84,0,0,0,130.45,21a1.58,1.58,0,0,0,1.44-1.75V6.47Zm-6.36,5.37a.79.79,0,0,1-.27.55,2.77,2.77,0,0,1-3,.31,2.69,2.69,0,0,1-1.64-2.35,2.81,2.81,0,0,1,2.58-2.89,3.65,3.65,0,0,1,1.23.15c1,.3,1.08.51,1.08,1.49v1.14C125.55,10.78,125.57,11.31,125.53,11.84Z" transform="translate(0.11 0.03)"/><path class="cls-1" d="M94.53,6.5c0-.89-.33-1.23-1.2-1.23H89.48c-.86,0-1.08.17-1.31,1-.08.3-.25.38-.53.26s-.35-.18-.53-.25a8.54,8.54,0,0,0-5.6-.74,10.23,10.23,0,0,0-4.34,2,3.23,3.23,0,0,0,.21,5.3A12.74,12.74,0,0,0,79.45,14a8.4,8.4,0,0,0,4.55.82,8.77,8.77,0,0,0,3.52-1.09c.39-.24.57-.13.68.31a1,1,0,0,0,1,.84c1.42,0,2.84,0,4.27,0a1,1,0,0,0,1-1.06c0-1.24,0-2.49,0-3.73Zm-6.35,5.4a.64.64,0,0,1-.19.43,2.75,2.75,0,0,1-3.09.34,2.58,2.58,0,0,1-1.57-2.61,2.62,2.62,0,0,1,1.72-2.39,2.79,2.79,0,0,1,3,.42.73.73,0,0,1,.18.43c0,.57,0,1.13,0,1.69S88.2,11.34,88.18,11.9Z" transform="translate(0.11 0.03)"/></svg>