<svg id="Layer_1" data-name="Layer 1" xmlns="http://www.w3.org/2000/svg" viewBox="0 0 2295.97 48"><defs><style>.cls-1{fill:none;}.cls-2{fill:#595959;}</style></defs><rect class="cls-1" x="3.97" y="0.08" width="2292" height="47.83"/><path class="cls-2" d="M455.72,23.55a5.59,5.59,0,0,1-3.54,5.27,25.25,25.25,0,0,1-2.62.71L430.67,34.4l-18.4,4.75-23.31,6c-3.3.85-6.59,1.68-9.88,2.56a2,2,0,0,1-1.09,0l-23.92-6.17-25-6.46c-7.88-2-15.76-4-23.62-6.11a5.17,5.17,0,0,1-3.83-4.14,5.83,5.83,0,0,1,3-6.43,8.32,8.32,0,0,1,2.29-.8l17.54-4.36,27.87-6.94,22-5.47,4.07-1a1.06,1.06,0,0,1,.5,0l11.57,2.87L419.72,10l16.07,4q7.84,1.95,15.67,3.9a6.21,6.21,0,0,1,4.17,4.77C455.67,23,455.69,23.26,455.72,23.55Zm-22.46,2.64V20.92c0-.69-.29-1-1-1H429c-.61,0-.84.19-1,.79-.06.29-.19.36-.47.25l-.31-.14a7.1,7.1,0,0,0-4.77-.64,8.58,8.58,0,0,0-3.5,1.59,2.65,2.65,0,0,0,.19,4.38,9.63,9.63,0,0,0,1.43.82,7.18,7.18,0,0,0,6.89-.12c.35-.19.54-.07.55.34,0,1.15,0,2.31,0,3.46a.86.86,0,0,1-.45.81,3.1,3.1,0,0,1-.92.34,24.75,24.75,0,0,1-7.19,0,.57.57,0,0,0-.73.6c0,.48.16.75.65.81,1.34.15,2.68.36,4,.39a40.51,40.51,0,0,0,8.64-.78,1.29,1.29,0,0,0,1.19-1.44ZM324.67,21.68v5.23a.79.79,0,0,0,.91.9c1.16,0,2.32,0,3.47,0,.68,0,1-.28,1-1,0-1.36,0-2.72,0-4.08a1,1,0,0,1,.14-.35,3.85,3.85,0,0,1,.27.3s0,.11.05.16c.41,1.49.82,3,1.22,4.47a.55.55,0,0,0,.57.48h4.44c.37,0,.45-.1.36-.46-.46-1.8-.93-3.59-1.39-5.39l-.7-2.74c-.12-.46-.06-.55.35-.76s.95-.46,1.42-.69a.59.59,0,0,0,.41-.67c0-.32,0-.65,0-1s-.13-.44-.44-.36a1.45,1.45,0,0,0-.29.11L331.12,18a2,2,0,0,1-.59.17c-.36,0-.51-.1-.51-.46s0-.79,0-1.18c0-.66-.27-.93-.91-.94h-3.51c-.65,0-.92.27-.92.92Zm28.09,2.2v3c0,.65.29.95.94.95q1.67,0,3.33,0a.83.83,0,0,0,1-.95V23.77a8.86,8.86,0,0,1,0-1,1,1,0,0,1,.87-1c.53,0,.85.29.85.92,0,1.41,0,2.82,0,4.23a.81.81,0,0,0,.87.89c1.13,0,2.25,0,3.37,0a.8.8,0,0,0,.85-.88c0-1,0-2.07,0-3.11a4.5,4.5,0,0,1,.15-1.16.77.77,0,0,1,1.12-.5.92.92,0,0,1,.42.9c0,1.29,0,2.58,0,3.87a.78.78,0,0,0,.84.88c1.12,0,2.25,0,3.37,0a.78.78,0,0,0,.85-.86c0-1,0-2,0-3.05a4.73,4.73,0,0,0-.2-1.46A4,4,0,0,0,366.76,20a5.21,5.21,0,0,0-2.27,1.09c-.33.23-.55.23-.76,0a3.5,3.5,0,0,0-3.1-1.31,3.7,3.7,0,0,0-1.95.58c-.24.14-.54.24-.7-.06a.65.65,0,0,0-.68-.35c-1.23,0-2.45,0-3.68,0a.78.78,0,0,0-.86.89Zm20.86-2.18c0,1.74,0,3.47,0,5.2a.81.81,0,0,0,.88.91q1.74,0,3.48,0a.8.8,0,0,0,.86-.89c0-.73,0-1.46,0-2.19a1.11,1.11,0,0,1,.1-.29.91.91,0,0,1,.21.23c.41.88.81,1.76,1.21,2.64a.75.75,0,0,0,.79.51c1.29,0,2.57,0,3.86,0,.65,0,.85-.29.6-.9l-1.82-4.44c-.12-.28-.12-.48.22-.58s.69-.25,1-.37c1.15-.41.91-.32.92-1.36,0-.42-.12-.51-.53-.4l-2.65.74c-1.08.3-2.15.61-3.24.9-.52.14-.71,0-.71-.54V16.53c0-.64-.29-.93-.92-.93h-3.37c-.66,0-.94.29-.94.95Zm28.91,2.19c0-1,0-2,0-2.95,0-.73-.27-1-1-1h-3.17c-.71,0-.89.14-1.08.84-.07.25-.21.31-.44.21l-.43-.2a7,7,0,0,0-4.61-.6,8.41,8.41,0,0,0-3.57,1.62,2.64,2.64,0,0,0,.17,4.34,9.82,9.82,0,0,0,1.71.95,6.89,6.89,0,0,0,3.74.67,7.47,7.47,0,0,0,2.9-.89c.32-.2.47-.11.55.25a.8.8,0,0,0,.86.69q1.75,0,3.51,0a.79.79,0,0,0,.84-.87C402.53,25.92,402.53,24.9,402.53,23.89Zm-51.67,0v-3c0-.66-.28-.95-.94-.95h-3.27c-.69,0-1,.29-1,1V24.7a.88.88,0,0,1-.44.84,1,1,0,0,1-1.49-.86c0-1.28,0-2.56,0-3.85a.79.79,0,0,0-.79-.89c-1.2,0-2.41,0-3.61,0a.73.73,0,0,0-.78.75c0,1.22,0,2.45.05,3.67A3.86,3.86,0,0,0,345,27.05c.34-.32.48-.29.68.15a1,1,0,0,0,.94.62H350a.79.79,0,0,0,.88-.9Zm53.53,0v3a.81.81,0,0,0,.89.91c1.15,0,2.29,0,3.44,0a.8.8,0,0,0,.89-.9c0-1.13,0-2.26,0-3.39a2.56,2.56,0,0,1,.05-.55.94.94,0,0,1,1-.84c.47.05.7.38.7,1,0,1.25,0,2.5,0,3.74,0,.62.3.93.9.93q1.65,0,3.3,0a.82.82,0,0,0,.89-.91c0-1,0-2,0-2.95a4.63,4.63,0,0,0-.25-1.58A3.93,3.93,0,0,0,412,20a3.79,3.79,0,0,0-1.62.6c-.34.24-.63.19-.75-.11a.89.89,0,0,0-.9-.56h-3.37a.82.82,0,0,0-.93.95Z" transform="translate(0.03 0.21)"/><path class="cls-2" d="M428,24c0,.44,0,.88,0,1.31a.68.68,0,0,1-.23.45,2.31,2.31,0,0,1-2.43.26A2.24,2.24,0,0,1,424,24.09a2.31,2.31,0,0,1,2.13-2.36,2.87,2.87,0,0,1,1,.13c.78.24.89.41.89,1.21Z" transform="translate(0.03 0.21)"/><path class="cls-2" d="M397.3,24c0,.46,0,.92,0,1.38a.54.54,0,0,1-.16.35,2.28,2.28,0,0,1-2.54.28,2.22,2.22,0,0,1,.12-4.09,2.29,2.29,0,0,1,2.43.34.54.54,0,0,1,.15.35C397.31,23.06,397.3,23.52,397.3,24Z" transform="translate(0.03 0.21)"/><path class="cls-2" d="M173.49,20.86v5.23a.8.8,0,0,0,.91.91h3.48c.67,0,1-.29,1-1,0-1.36,0-2.73,0-4.09a1,1,0,0,1,.14-.34,3.71,3.71,0,0,1,.27.29.31.31,0,0,1,.05.17c.41,1.49.82,3,1.22,4.47a.55.55,0,0,0,.57.48h4.44c.38,0,.45-.1.36-.47-.46-1.79-.92-3.59-1.39-5.38-.23-.92-.47-1.83-.7-2.75-.12-.45-.06-.55.35-.75l1.42-.69a.59.59,0,0,0,.41-.67c0-.32,0-.65,0-1s-.14-.44-.45-.36a2.47,2.47,0,0,0-.29.1L180,17.19a2.48,2.48,0,0,1-.59.17c-.36,0-.52-.1-.52-.47s0-.78,0-1.18c0-.65-.27-.93-.91-.93h-3.51c-.65,0-.92.27-.92.92Z" transform="translate(0.03 0.21)"/><path class="cls-2" d="M201.58,23.06v3c0,.66.29,1,.94,1h3.33c.65,0,1-.3,1-1V23a9,9,0,0,1,0-1,1,1,0,0,1,.87-1c.53,0,.85.29.85.93,0,1.41,0,2.82,0,4.22a.8.8,0,0,0,.86.9c1.13,0,2.25,0,3.38,0a.79.79,0,0,0,.84-.88c0-1,0-2.08,0-3.12a4.43,4.43,0,0,1,.15-1.15.77.77,0,0,1,1.12-.5.9.9,0,0,1,.42.89c0,1.29,0,2.59,0,3.88a.78.78,0,0,0,.84.88c1.12,0,2.25,0,3.37,0a.79.79,0,0,0,.86-.86c0-1,0-2,0-3.05a4.69,4.69,0,0,0-.2-1.46,4,4,0,0,0-4.6-2.42,5.29,5.29,0,0,0-2.28,1.08c-.32.24-.55.24-.75,0a3.55,3.55,0,0,0-3.11-1.3,3.69,3.69,0,0,0-1.95.57c-.23.15-.54.24-.7-.05a.66.66,0,0,0-.68-.36c-1.23,0-2.45,0-3.68,0a.8.8,0,0,0-.86.9Z" transform="translate(0.03 0.21)"/><path class="cls-2" d="M222.44,20.89v5.2a.81.81,0,0,0,.88.91q1.74,0,3.48,0a.82.82,0,0,0,.87-.9c0-.73,0-1.45,0-2.18a1.18,1.18,0,0,1,.1-.3,1.17,1.17,0,0,1,.21.24c.41.87.82,1.75,1.21,2.64a.77.77,0,0,0,.8.51c1.28,0,2.56,0,3.85,0,.66,0,.85-.29.6-.9l-1.82-4.44c-.11-.28-.12-.48.22-.58s.69-.25,1-.38c1.16-.4.91-.31.92-1.35,0-.43-.11-.51-.53-.4l-2.64.74c-1.08.3-2.16.61-3.25.89-.52.14-.71,0-.71-.53V15.72c0-.64-.29-.94-.92-.94h-3.37c-.66,0-.94.29-.94,1Z" transform="translate(0.03 0.21)"/><path class="cls-2" d="M199.68,23.08c0-1,0-2,0-3,0-.66-.28-.95-.94-.95h-3.27c-.69,0-1,.29-1,1v3.78a.84.84,0,0,1-.44.83,1,1,0,0,1-1.49-.85c0-1.29,0-2.57,0-3.85a.8.8,0,0,0-.8-.9c-1.2,0-2.4,0-3.61,0a.75.75,0,0,0-.78.76c0,1.22,0,2.45,0,3.67a3.59,3.59,0,0,0,3.32,3.57,3.64,3.64,0,0,0,3-.89c.34-.31.47-.28.67.15a.94.94,0,0,0,.94.62c1.14,0,2.27,0,3.41,0a.8.8,0,0,0,.88-.91C199.69,25.09,199.68,24.08,199.68,23.08Z" transform="translate(0.03 0.21)"/><path class="cls-2" d="M253.21,23v3.05a.82.82,0,0,0,.89.91c1.15,0,2.3,0,3.44,0a.8.8,0,0,0,.89-.9c0-1.13,0-2.26,0-3.4a2.41,2.41,0,0,1,.05-.54,1,1,0,0,1,1-.85c.47.05.71.39.71,1v3.74a.81.81,0,0,0,.89.93q1.65,0,3.3,0a.82.82,0,0,0,.89-.92c0-1,0-2,0-2.94a4.73,4.73,0,0,0-.25-1.59,3.9,3.9,0,0,0-4.24-2.36,3.66,3.66,0,0,0-1.63.6c-.34.24-.62.18-.75-.11a.89.89,0,0,0-.9-.56c-1.12,0-2.25,0-3.37,0-.63,0-.92.31-.93.94Z" transform="translate(0.03 0.21)"/><path class="cls-2" d="M282.08,20.11c0-.69-.29-1-1-1-1.09,0-2.17,0-3.26,0-.62,0-.85.19-1,.79-.06.29-.19.36-.47.25l-.31-.15a7.1,7.1,0,0,0-4.77-.64,8.47,8.47,0,0,0-3.5,1.6,2.65,2.65,0,0,0,.19,4.38,9.63,9.63,0,0,0,1.43.82,7.18,7.18,0,0,0,6.89-.12c.35-.2.55-.07.55.34v3.46a.86.86,0,0,1-.45.81,3,3,0,0,1-.92.34,25.1,25.1,0,0,1-7.19,0,.57.57,0,0,0-.73.59c0,.49.16.76.65.81,1.34.16,2.68.36,4,.4a39.82,39.82,0,0,0,8.64-.79,1.28,1.28,0,0,0,1.19-1.43V20.11Zm-5.23,4.4a.7.7,0,0,1-.23.45,2.3,2.3,0,0,1-2.43.25,2.22,2.22,0,0,1-1.35-1.93A2.29,2.29,0,0,1,275,20.92a2.86,2.86,0,0,1,1,.12c.78.24.89.42.89,1.22v.93C276.86,23.63,276.88,24.07,276.85,24.51Z" transform="translate(0.03 0.21)"/><path class="cls-2" d="M251.35,20.13c0-.73-.27-1-1-1h-3.17c-.71,0-.89.13-1.08.83-.06.26-.21.32-.43.22l-.44-.21a7.05,7.05,0,0,0-4.61-.6A8.41,8.41,0,0,0,237.06,21a2.64,2.64,0,0,0,.17,4.34,10.61,10.61,0,0,0,1.71.95,6.9,6.9,0,0,0,3.74.68,7.23,7.23,0,0,0,2.9-.9c.32-.19.47-.11.56.26A.8.8,0,0,0,247,27q1.75,0,3.51,0a.79.79,0,0,0,.85-.88v-6Zm-5.23,4.43a.54.54,0,0,1-.15.35,2.29,2.29,0,0,1-2.55.27,2.22,2.22,0,0,1,.13-4.09,2.28,2.28,0,0,1,2.42.34.56.56,0,0,1,.15.36c0,.46,0,.92,0,1.38S246.14,24.1,246.12,24.56Z" transform="translate(0.03 0.21)"/><path class="cls-2" d="M673.16,20.86v5.23a.81.81,0,0,0,.92.91h3.47c.67,0,1-.29,1-1,0-1.36,0-2.73,0-4.09a1,1,0,0,1,.14-.34,3.71,3.71,0,0,1,.27.29.69.69,0,0,1,.05.17c.4,1.49.81,3,1.21,4.47a.56.56,0,0,0,.58.48h4.43c.38,0,.46-.1.36-.47l-1.38-5.38c-.24-.92-.48-1.83-.71-2.75-.11-.45-.06-.55.36-.75l1.42-.69a.61.61,0,0,0,.41-.67,7.85,7.85,0,0,1,0-1c0-.34-.13-.44-.45-.36-.1,0-.19.07-.29.1l-5.29,2.13a2.48,2.48,0,0,1-.59.17c-.36,0-.51-.1-.52-.47s0-.78,0-1.18c0-.65-.27-.93-.92-.93h-3.5c-.66,0-.93.27-.93.92Z" transform="translate(0.03 0.21)"/><path class="cls-2" d="M701.25,23.06v3c0,.66.3,1,.94,1h3.34c.64,0,.94-.3.94-1,0-1,0-2.05,0-3.08,0-.35,0-.69,0-1a1,1,0,0,1,.87-1c.53,0,.85.29.86.93V26.1a.81.81,0,0,0,.87.9c1.12,0,2.25,0,3.37,0a.79.79,0,0,0,.84-.88c0-1,0-2.08,0-3.12a4.42,4.42,0,0,1,.14-1.15.78.78,0,0,1,1.13-.5.91.91,0,0,1,.41.89v3.88a.79.79,0,0,0,.84.88c1.13,0,2.25,0,3.38,0a.78.78,0,0,0,.85-.86c0-1,0-2,0-3.05a4.16,4.16,0,0,0-.2-1.46,4,4,0,0,0-4.6-2.42A5.4,5.4,0,0,0,713,20.29c-.32.24-.55.24-.75,0a3.54,3.54,0,0,0-3.1-1.3,3.7,3.7,0,0,0-2,.57c-.23.15-.53.24-.69-.05a.68.68,0,0,0-.69-.36c-1.22,0-2.45,0-3.68,0a.81.81,0,0,0-.86.9Z" transform="translate(0.03 0.21)"/><path class="cls-2" d="M722.11,20.89v5.2A.82.82,0,0,0,723,27c1.16,0,2.31,0,3.47,0a.81.81,0,0,0,.87-.9c0-.73,0-1.45,0-2.18a.88.88,0,0,1,.1-.3,1.17,1.17,0,0,1,.21.24q.62,1.3,1.2,2.64a.77.77,0,0,0,.8.51c1.28,0,2.57,0,3.85,0,.66,0,.85-.29.6-.9q-.9-2.22-1.81-4.44c-.12-.28-.13-.48.22-.58s.69-.25,1-.38c1.16-.4.92-.31.93-1.35,0-.43-.12-.51-.53-.4l-2.65.74c-1.08.3-2.16.61-3.24.89-.52.14-.72,0-.72-.53V15.72c0-.64-.29-.94-.92-.94h-3.37c-.65,0-.94.29-.94,1Z" transform="translate(0.03 0.21)"/><path class="cls-2" d="M699.36,23.08v-3c0-.66-.29-.95-1-.95h-3.27c-.69,0-1,.29-1,1,0,1.26,0,2.52,0,3.78a.87.87,0,0,1-.44.83,1,1,0,0,1-1.5-.85c0-1.29,0-2.57,0-3.85a.79.79,0,0,0-.79-.9c-1.21,0-2.41,0-3.61,0a.75.75,0,0,0-.79.76c0,1.22,0,2.45.05,3.67a3.86,3.86,0,0,0,6.36,2.68c.34-.31.48-.28.67.15a1,1,0,0,0,1,.62c1.13,0,2.27,0,3.4,0a.8.8,0,0,0,.89-.91Z" transform="translate(0.03 0.21)"/><path class="cls-2" d="M752.89,23c0,1,0,2,0,3.05a.81.81,0,0,0,.89.91c1.14,0,2.29,0,3.44,0a.8.8,0,0,0,.89-.9V22.7a2.42,2.42,0,0,1,.06-.54.94.94,0,0,1,1-.85c.47.05.71.39.71,1v3.74a.81.81,0,0,0,.89.93c1.1,0,2.21,0,3.31,0a.82.82,0,0,0,.88-.92c0-1,0-2,0-2.94a4.73,4.73,0,0,0-.25-1.59,3.89,3.89,0,0,0-4.24-2.36,3.75,3.75,0,0,0-1.63.6c-.33.24-.62.18-.75-.11a.87.87,0,0,0-.9-.56c-1.12,0-2.24,0-3.37,0-.63,0-.92.31-.92.94Z" transform="translate(0.03 0.21)"/><path class="cls-2" d="M781.75,20.11c0-.69-.29-1-1-1-1.09,0-2.18,0-3.27,0-.61,0-.84.19-1,.79-.07.29-.2.36-.47.25a3,3,0,0,1-.31-.15,7.1,7.1,0,0,0-4.77-.64,8.45,8.45,0,0,0-3.51,1.6,2.65,2.65,0,0,0,.19,4.38,10.76,10.76,0,0,0,1.43.82,7.17,7.17,0,0,0,6.89-.12c.35-.2.55-.07.55.34,0,1.15,0,2.31,0,3.46a.86.86,0,0,1-.44.81,3.16,3.16,0,0,1-.93.34A25.1,25.1,0,0,1,768,31a.57.57,0,0,0-.73.59c0,.49.16.76.65.81,1.34.16,2.69.36,4,.4a39.91,39.91,0,0,0,8.65-.79,1.28,1.28,0,0,0,1.18-1.43V20.11Zm-5.23,4.4a.66.66,0,0,1-.23.45,2.3,2.3,0,0,1-2.43.25,2.22,2.22,0,0,1-1.35-1.93,2.3,2.3,0,0,1,2.13-2.36,2.89,2.89,0,0,1,1,.12c.78.24.88.42.88,1.22v.93C776.53,23.63,776.55,24.07,776.52,24.51Z" transform="translate(0.03 0.21)"/><path class="cls-2" d="M751,20.13c0-.73-.27-1-1-1h-3.16c-.72,0-.89.13-1.08.83-.07.26-.21.32-.44.22l-.44-.21a7.05,7.05,0,0,0-4.61-.6A8.38,8.38,0,0,0,736.74,21a2.64,2.64,0,0,0,.17,4.34,10.11,10.11,0,0,0,1.7.95,6.9,6.9,0,0,0,3.74.68,7.23,7.23,0,0,0,2.9-.9c.32-.19.47-.11.56.26a.81.81,0,0,0,.86.69q1.76,0,3.51,0a.79.79,0,0,0,.84-.88v-6Zm-5.23,4.43a.49.49,0,0,1-.15.35,2.29,2.29,0,0,1-2.55.27A2.12,2.12,0,0,1,741.8,23a2.16,2.16,0,0,1,1.42-1.95,2.28,2.28,0,0,1,2.42.34.51.51,0,0,1,.15.36c0,.46,0,.92,0,1.38S745.81,24.1,745.79,24.56Z" transform="translate(0.03 0.21)"/><path class="cls-2" d="M550.33.65h0l11.57,2.87,13,3.23,16.36,4.08L599.89,13l7.45,1.85,3,.74L623,18.72a5.36,5.36,0,0,1,3.53,4.05l.06.58,0,.24a4.74,4.74,0,0,1-3,4.43,12.53,12.53,0,0,1-1.76.49l-.76.19-9.5,2.45-9.4,2.42L592.66,36l-8.84,2.28-22,5.67-1.36.35L558,45c-2.46.63-4.91,1.26-7.36,1.91a1.24,1.24,0,0,1-.27,0,1.61,1.61,0,0,1-.39-.06L531.13,42l-5.08-1.31L512.9,37.31,501,34.24c-2.17-.57-4.35-1.12-6.52-1.68-5.6-1.44-11.4-2.93-17.09-4.43a4.29,4.29,0,0,1-3.21-3.5,5,5,0,0,1,2.57-5.51,6.56,6.56,0,0,1,1.84-.64l.22-.05,11.87-3,5.66-1.41,16.57-4.12,11.3-2.81.53-.14,21.49-5.34,4-1h.05m0-.86a1,1,0,0,0-.25,0L546,.82,524,6.29l-27.86,6.94L478.6,17.59a8.32,8.32,0,0,0-2.29.8,5.82,5.82,0,0,0-3,6.43A5.15,5.15,0,0,0,477.17,29C485,31,492.91,33,500.78,35.07l25.05,6.46,23.92,6.17a2,2,0,0,0,1.09,0c3.29-.88,6.58-1.71,9.87-2.56l23.32-6,18.4-4.75,18.89-4.87a25.25,25.25,0,0,0,2.62-.71,5.6,5.6,0,0,0,3.54-5.27c0-.29-.05-.59-.09-.89a6.23,6.23,0,0,0-4.17-4.77q-7.83-2-15.67-3.9l-16.07-4-29.33-7.3L550.58-.18a1.07,1.07,0,0,0-.25,0Z" transform="translate(0.03 0.21)"/><path class="cls-2" d="M577,.65h0l11.57,2.87,13,3.23,16.37,4.08L626.53,13,634,14.82l3,.74,12.68,3.16a5.36,5.36,0,0,1,3.53,4.05l.06.58,0,.24a4.74,4.74,0,0,1-3,4.43,12.77,12.77,0,0,1-1.75.49l-.77.19-9.5,2.45-9.4,2.42L619.3,36l-8.84,2.28L588.5,44l-1.36.35-2.52.65c-2.46.63-4.91,1.26-7.36,1.91l-.26,0a1.68,1.68,0,0,1-.4-.06L557.78,42l-5.09-1.31-13.15-3.39-11.9-3.07c-2.17-.57-4.34-1.12-6.52-1.68-5.6-1.44-11.4-2.93-17.09-4.43a4.29,4.29,0,0,1-3.21-3.5,5,5,0,0,1,2.57-5.51,6.56,6.56,0,0,1,1.84-.64l.22-.05,11.87-3L523,14.06l16.56-4.12,11.3-2.81.53-.14,21.49-5.34,4-1H577m0-.86a1,1,0,0,0-.25,0l-4.07,1-22,5.47-27.87,6.94-17.54,4.36a8.32,8.32,0,0,0-2.29.8,5.82,5.82,0,0,0-3,6.43A5.17,5.17,0,0,0,503.81,29c7.86,2.07,15.74,4.07,23.62,6.11l25,6.46,23.92,6.17a2.15,2.15,0,0,0,.61.09,2.1,2.1,0,0,0,.48-.06c3.29-.88,6.58-1.71,9.88-2.56l23.31-6,18.4-4.75L648,29.53a25.25,25.25,0,0,0,2.62-.71,5.59,5.59,0,0,0,3.54-5.27c0-.29,0-.59-.09-.89a6.21,6.21,0,0,0-4.17-4.77q-7.83-2-15.67-3.9l-16.07-4-29.33-7.3L577.22-.18a1,1,0,0,0-.25,0Z" transform="translate(0.03 0.21)"/><path class="cls-2" d="M1948.44,23.55a5.58,5.58,0,0,1-3.53,5.27,26,26,0,0,1-2.62.71l-18.9,4.87L1905,39.15l-23.32,6c-3.29.85-6.59,1.68-9.87,2.56a2,2,0,0,1-1.09,0l-23.92-6.17-25-6.46c-7.87-2-15.75-4-23.61-6.11a5.15,5.15,0,0,1-3.83-4.14,5.82,5.82,0,0,1,3-6.43,8.1,8.1,0,0,1,2.29-.8l17.54-4.36L1845,6.29l22-5.47,4.07-1a1,1,0,0,1,.49,0l11.57,2.87,29.34,7.3,16.07,4q7.83,1.95,15.67,3.9a6.23,6.23,0,0,1,4.17,4.77C1948.39,23,1948.42,23.26,1948.44,23.55ZM1926,26.19c0-1.76,0-3.51,0-5.27,0-.69-.29-1-1-1h-3.27c-.61,0-.84.19-1,.79-.07.29-.2.36-.47.25l-.31-.14a7.1,7.1,0,0,0-4.77-.64,8.56,8.56,0,0,0-3.51,1.59,2.65,2.65,0,0,0,.19,4.38,10.76,10.76,0,0,0,1.43.82,7.17,7.17,0,0,0,6.89-.12c.35-.19.55-.07.55.34,0,1.15,0,2.31,0,3.46a.86.86,0,0,1-.44.81,3.2,3.2,0,0,1-.92.34,24.82,24.82,0,0,1-7.2,0,.57.57,0,0,0-.73.6c0,.48.16.75.65.81,1.34.15,2.69.36,4,.39a40.54,40.54,0,0,0,8.65-.78,1.29,1.29,0,0,0,1.18-1.44C1926,29.65,1926,27.92,1926,26.19Zm-108.59-4.51c0,1.74,0,3.48,0,5.23a.79.79,0,0,0,.91.9c1.15,0,2.31,0,3.47,0,.67,0,1-.28,1-1,0-1.36,0-2.72,0-4.08a1,1,0,0,1,.14-.35,3.85,3.85,0,0,1,.27.3s0,.11,0,.16c.4,1.49.81,3,1.21,4.47a.56.56,0,0,0,.58.48h4.43c.38,0,.46-.1.36-.46L1828.41,22c-.24-.91-.48-1.83-.71-2.74-.11-.46-.06-.55.36-.76l1.42-.69a.6.6,0,0,0,.41-.67,7.85,7.85,0,0,1,0-1c0-.33-.13-.44-.45-.36a1.72,1.72,0,0,0-.29.11L1823.85,18a2.09,2.09,0,0,1-.59.17c-.36,0-.51-.1-.52-.46s0-.79,0-1.18c0-.66-.27-.93-.92-.94h-3.5c-.66,0-.92.27-.92.92C1817.39,18.24,1817.39,20,1817.39,21.68Zm28.09,2.2v3c0,.65.3.95.94.95,1.11,0,2.23,0,3.34,0,.64,0,.94-.3.94-.95,0-1,0-2.06,0-3.09,0-.34,0-.69,0-1a1,1,0,0,1,.87-1c.53,0,.85.29.86.92v4.23a.8.8,0,0,0,.87.89c1.12,0,2.25,0,3.37,0a.79.79,0,0,0,.84-.88c0-1,0-2.07,0-3.11a5,5,0,0,1,.14-1.16.78.78,0,0,1,1.13-.5.93.93,0,0,1,.41.9v3.87a.79.79,0,0,0,.85.88c1.12,0,2.24,0,3.37,0a.78.78,0,0,0,.85-.86c0-1,0-2,0-3.05a4.2,4.2,0,0,0-.2-1.46,4,4,0,0,0-4.6-2.42,5.3,5.3,0,0,0-2.28,1.09c-.32.23-.55.23-.75,0a3.53,3.53,0,0,0-3.1-1.31,3.71,3.71,0,0,0-2,.58c-.23.14-.53.24-.69-.06a.67.67,0,0,0-.69-.35c-1.22,0-2.45,0-3.68,0a.79.79,0,0,0-.86.89Zm20.86-2.18v5.2a.82.82,0,0,0,.89.91c1.16,0,2.32,0,3.47,0a.8.8,0,0,0,.87-.89c0-.73,0-1.46,0-2.19a.84.84,0,0,1,.1-.29.91.91,0,0,1,.21.23q.61,1.32,1.2,2.64a.77.77,0,0,0,.8.51c1.28,0,2.57,0,3.85,0,.66,0,.85-.29.6-.9q-.9-2.22-1.81-4.44c-.12-.28-.13-.48.22-.58s.69-.25,1-.37c1.16-.41.92-.32.93-1.36,0-.42-.12-.51-.53-.4l-2.65.74-3.24.9c-.52.14-.72,0-.72-.54V16.53c0-.64-.28-.93-.91-.93h-3.37c-.66,0-1,.29-1,.95Zm28.91,2.19V20.94c0-.73-.27-1-1-1h-3.16c-.71,0-.89.14-1.08.84-.07.25-.21.31-.44.21l-.44-.2a7,7,0,0,0-4.61-.6A8.43,8.43,0,0,0,1881,21.8a2.64,2.64,0,0,0,.17,4.34,9.82,9.82,0,0,0,1.71.95,6.84,6.84,0,0,0,3.73.67,7.37,7.37,0,0,0,2.9-.89c.32-.2.47-.11.56.25a.8.8,0,0,0,.86.69q1.75,0,3.51,0a.79.79,0,0,0,.84-.87Zm-51.66,0v-3c0-.66-.29-.95-.95-.95h-3.27c-.69,0-1,.29-1,1,0,1.26,0,2.52,0,3.78a.9.9,0,0,1-.44.84,1,1,0,0,1-1.49-.86c0-1.28,0-2.56,0-3.85a.79.79,0,0,0-.79-.89c-1.21,0-2.41,0-3.61,0a.74.74,0,0,0-.79.75c0,1.22,0,2.45.06,3.67a3.86,3.86,0,0,0,6.35,2.69c.34-.32.48-.29.67.15a1,1,0,0,0,1,.62h3.4a.8.8,0,0,0,.89-.9Zm53.53,0c0,1,0,2,0,3a.81.81,0,0,0,.89.91c1.14,0,2.29,0,3.44,0a.8.8,0,0,0,.89-.9V23.52a2.57,2.57,0,0,1,.06-.55.93.93,0,0,1,1-.84c.47.05.71.38.71,1v3.74c0,.62.29.93.89.93,1.11,0,2.21,0,3.31,0a.81.81,0,0,0,.88-.91c0-1,0-2,0-2.95a4.63,4.63,0,0,0-.25-1.58,4,4,0,0,0-5.87-1.77c-.33.24-.62.19-.75-.11a.87.87,0,0,0-.9-.56H1898c-.63,0-.92.31-.92.95Z" transform="translate(0.03 0.21)"/><path class="cls-2" d="M1920.76,24c0,.44,0,.88,0,1.31a.67.67,0,0,1-.22.45,2.32,2.32,0,0,1-2.44.26,2.23,2.23,0,0,1-1.35-1.94,2.3,2.3,0,0,1,2.13-2.36,2.9,2.9,0,0,1,1,.13c.78.24.88.41.88,1.21Z" transform="translate(0.03 0.21)"/><path class="cls-2" d="M1890,24c0,.46,0,.92,0,1.38a.49.49,0,0,1-.15.35,2.3,2.3,0,0,1-2.55.28,2.13,2.13,0,0,1-1.29-2.14,2.15,2.15,0,0,1,1.42-1.95,2.28,2.28,0,0,1,2.42.34.49.49,0,0,1,.15.35C1890,23.06,1890,23.52,1890,24Z" transform="translate(0.03 0.21)"/><path class="cls-2" d="M2043.05.65h0l11.56,2.87,13,3.23L2084,10.83l8.61,2.14,7.46,1.85,3,.74,12.69,3.16a5.35,5.35,0,0,1,3.52,4.05,5.42,5.42,0,0,1,.06.58l0,.24a4.75,4.75,0,0,1-3,4.43,12.92,12.92,0,0,1-1.76.49l-.77.19-9.5,2.45-9.39,2.42L2085.39,36l-8.85,2.28-22,5.67-1.35.35-2.53.65c-2.45.63-4.91,1.26-7.36,1.91a1.15,1.15,0,0,1-.26,0,1.61,1.61,0,0,1-.39-.06L2023.86,42l-5.09-1.31-13.14-3.39-11.91-3.07-6.51-1.68c-5.61-1.44-11.4-2.93-17.09-4.43a4.29,4.29,0,0,1-3.22-3.5,5,5,0,0,1,2.58-5.51,6.6,6.6,0,0,1,1.83-.64l.23-.05,11.87-3,5.66-1.41,16.56-4.12,11.31-2.81.53-.14L2039,1.65l4-1h0m0-.86a1.07,1.07,0,0,0-.25,0l-4.07,1-22,5.47-27.87,6.94-17.53,4.36a8.1,8.1,0,0,0-2.29.8,5.81,5.81,0,0,0-3,6.43A5.15,5.15,0,0,0,1969.9,29c7.86,2.07,15.74,4.07,23.61,6.11l25,6.46,23.91,6.17a2.2,2.2,0,0,0,.61.09,2,2,0,0,0,.48-.06c3.29-.88,6.59-1.71,9.88-2.56l23.32-6,18.39-4.75,18.9-4.87a25.76,25.76,0,0,0,2.61-.71,5.59,5.59,0,0,0,3.54-5.27c0-.29,0-.59-.08-.89a6.22,6.22,0,0,0-4.18-4.77L2100.28,14l-16.07-4-29.34-7.3L2043.3-.18a1,1,0,0,0-.25,0Z" transform="translate(0.03 0.21)"/><path class="cls-2" d="M2069.7.65h0l11.57,2.87,13,3.23,16.36,4.08,8.61,2.14,7.46,1.85,3,.74,12.69,3.16a5.38,5.38,0,0,1,3.53,4.05l.06.58,0,.24a4.76,4.76,0,0,1-3,4.43,12.92,12.92,0,0,1-1.76.49l-.77.19L2131,31.15l-9.4,2.42L2112,36l-8.84,2.28-22,5.67-1.35.35-2.52.65c-2.46.63-4.91,1.26-7.36,1.91a1.31,1.31,0,0,1-.27,0,1.61,1.61,0,0,1-.39-.06L2050.5,42l-5.09-1.31-13.14-3.39-11.9-3.07-6.52-1.68c-5.61-1.44-11.4-2.93-17.09-4.43a4.29,4.29,0,0,1-3.21-3.5,5,5,0,0,1,2.57-5.51,6.6,6.6,0,0,1,1.83-.64l.23-.05,11.87-3,5.66-1.41,16.57-4.12,11.3-2.81.53-.14,21.49-5.34,4.05-1h0m0-.86a1,1,0,0,0-.25,0l-4.07,1-22,5.47-27.86,6.94L1998,17.59a8.1,8.1,0,0,0-2.29.8,5.82,5.82,0,0,0-3,6.43,5.15,5.15,0,0,0,3.83,4.14c7.86,2.07,15.74,4.07,23.61,6.11l25,6.46,23.92,6.17a2.08,2.08,0,0,0,.6.09,2.12,2.12,0,0,0,.49-.06c3.28-.88,6.58-1.71,9.87-2.56l23.32-6,18.39-4.75,18.9-4.87a26,26,0,0,0,2.62-.71,5.58,5.58,0,0,0,3.53-5.27c0-.29-.05-.59-.08-.89a6.23,6.23,0,0,0-4.17-4.77q-7.83-2-15.67-3.9l-16.07-4-29.34-7.3L2069.94-.18a.93.93,0,0,0-.24,0Z" transform="translate(0.03 0.21)"/><path class="cls-2" d="M77.11.65h0L88.72,3.52l13,3.23,16.36,4.08L126.67,13l7.45,1.85,3,.74,12.68,3.16a5.36,5.36,0,0,1,3.53,4.05l.06.58,0,.24a4.74,4.74,0,0,1-3,4.43,12.77,12.77,0,0,1-1.75.49l-.77.19-9.5,2.45L129,33.57,119.44,36l-8.84,2.28L88.64,44l-1.36.35L84.76,45c-2.46.63-4.91,1.26-7.36,1.91a1.24,1.24,0,0,1-.27,0,1.61,1.61,0,0,1-.39-.06L57.92,42,52.83,40.7,39.68,37.31l-11.9-3.07c-2.17-.57-4.35-1.12-6.52-1.68-5.6-1.44-11.4-2.93-17.09-4.43A4.29,4.29,0,0,1,1,24.63a5,5,0,0,1,2.57-5.51,6.56,6.56,0,0,1,1.84-.64l.22-.05,11.87-3,5.66-1.41L39.69,9.94,51,7.13,51.52,7,73,1.65l4-1h0m0-.86a1,1,0,0,0-.25,0l-4.07,1-22,5.47L22.92,13.23,5.38,17.59a8.32,8.32,0,0,0-2.29.8,5.82,5.82,0,0,0-3,6.43A5.17,5.17,0,0,0,4,29C11.81,31,19.69,33,27.56,35.07l25.05,6.46L76.53,47.7a2,2,0,0,0,1.09,0c3.29-.88,6.58-1.71,9.88-2.56l23.31-6,18.4-4.75,18.89-4.87a25.25,25.25,0,0,0,2.62-.71,5.59,5.59,0,0,0,3.54-5.27c0-.29,0-.59-.09-.89A6.23,6.23,0,0,0,150,17.89q-7.83-2-15.67-3.9l-16.07-4L88.93,2.69,77.36-.18a1.07,1.07,0,0,0-.25,0Z" transform="translate(0.03 0.21)"/><path class="cls-2" d="M884.39.65h0L896,3.52l13,3.23,16.36,4.08L934,13l7.45,1.85,3,.74,12.69,3.16a5.38,5.38,0,0,1,3.53,4.05l.06.58,0,.24a4.74,4.74,0,0,1-3,4.43,12.92,12.92,0,0,1-1.76.49l-.77.19-9.49,2.45-9.4,2.42L926.72,36l-8.84,2.28-22,5.67-1.36.35L892,45c-2.46.63-4.91,1.26-7.36,1.91a1.31,1.31,0,0,1-.27,0,1.61,1.61,0,0,1-.39-.06L865.19,42,860.1,40.7,847,37.31l-11.9-3.07-6.52-1.68c-5.61-1.44-11.4-2.93-17.09-4.43a4.29,4.29,0,0,1-3.21-3.5,5,5,0,0,1,2.57-5.51,6.6,6.6,0,0,1,1.83-.64l.23-.05,11.87-3,5.66-1.41L847,9.94l11.3-2.81L858.8,7l21.49-5.34,4.05-1h0m0-.86a1,1,0,0,0-.25,0l-4.07,1-22,5.47L830.2,13.23l-17.54,4.36a8.1,8.1,0,0,0-2.29.8,5.82,5.82,0,0,0-3,6.43A5.15,5.15,0,0,0,811.23,29C819.09,31,827,33,834.84,35.07l25,6.46,23.92,6.17a2.08,2.08,0,0,0,.6.09,2.12,2.12,0,0,0,.49-.06c3.28-.88,6.58-1.71,9.87-2.56l23.32-6,18.39-4.75,18.9-4.87a26,26,0,0,0,2.62-.71,5.58,5.58,0,0,0,3.53-5.27c0-.29,0-.59-.08-.89a6.23,6.23,0,0,0-4.17-4.77q-7.83-2-15.67-3.9l-16.07-4L896.2,2.69,884.63-.18a.93.93,0,0,0-.24,0Z" transform="translate(0.03 0.21)"/><path class="cls-2" d="M1262.85,23.55a5.59,5.59,0,0,1-3.54,5.27,25.25,25.25,0,0,1-2.62.71L1237.8,34.4l-18.4,4.75-23.31,6c-3.3.85-6.59,1.68-9.88,2.56a2,2,0,0,1-1.09,0l-23.92-6.17-25-6.46c-7.88-2-15.76-4-23.62-6.11a5.17,5.17,0,0,1-3.83-4.14,5.82,5.82,0,0,1,3-6.43,8.32,8.32,0,0,1,2.29-.8l17.54-4.36,27.87-6.94,22-5.47,4.07-1a1.06,1.06,0,0,1,.5,0l11.57,2.87,29.33,7.3,16.07,4q7.83,1.95,15.67,3.9a6.21,6.21,0,0,1,4.17,4.77C1262.8,23,1262.82,23.26,1262.85,23.55Zm-22.46,2.64V20.92c0-.69-.3-1-1-1h-3.27c-.61,0-.84.19-1,.79-.06.29-.19.36-.47.25l-.31-.14a7.1,7.1,0,0,0-4.77-.64,8.58,8.58,0,0,0-3.5,1.59,2.65,2.65,0,0,0,.19,4.38,9.63,9.63,0,0,0,1.43.82,7.18,7.18,0,0,0,6.89-.12c.34-.19.54-.07.54.34,0,1.15,0,2.31,0,3.46a.86.86,0,0,1-.45.81,3.1,3.1,0,0,1-.92.34,24.75,24.75,0,0,1-7.19,0,.57.57,0,0,0-.73.6c0,.48.16.75.65.81,1.34.15,2.68.36,4,.39a40.51,40.51,0,0,0,8.64-.78,1.29,1.29,0,0,0,1.19-1.44ZM1131.8,21.68v5.23a.79.79,0,0,0,.91.9c1.16,0,2.32,0,3.47,0,.68,0,1-.28,1-1,0-1.36,0-2.72,0-4.08a1,1,0,0,1,.14-.35,3.85,3.85,0,0,1,.27.3s0,.11,0,.16c.41,1.49.81,3,1.22,4.47a.55.55,0,0,0,.57.48h4.44c.37,0,.45-.1.36-.46-.46-1.8-.93-3.59-1.39-5.39-.24-.91-.48-1.83-.71-2.74-.11-.46-.06-.55.36-.76s1-.46,1.42-.69a.59.59,0,0,0,.41-.67c0-.32,0-.65,0-1s-.13-.44-.45-.36a1.62,1.62,0,0,0-.28.11l-5.3,2.12a2.09,2.09,0,0,1-.59.17c-.36,0-.51-.1-.52-.46V16.53c0-.66-.27-.93-.91-.94h-3.51c-.65,0-.92.27-.92.92Zm28.09,2.2v3c0,.65.29.95.93.95,1.12,0,2.23,0,3.34,0a.83.83,0,0,0,.95-.95V23.77c0-.34,0-.69,0-1a1,1,0,0,1,.88-1c.53,0,.85.29.85.92,0,1.41,0,2.82,0,4.23a.81.81,0,0,0,.87.89c1.13,0,2.25,0,3.37,0a.8.8,0,0,0,.85-.88c0-1,0-2.07,0-3.11a4.5,4.5,0,0,1,.15-1.16.77.77,0,0,1,1.12-.5.93.93,0,0,1,.41.9c0,1.29,0,2.58,0,3.87a.78.78,0,0,0,.84.88c1.12,0,2.25,0,3.37,0a.78.78,0,0,0,.85-.86c0-1,0-2,0-3.05a4.73,4.73,0,0,0-.2-1.46,4,4,0,0,0-4.61-2.42,5.21,5.21,0,0,0-2.27,1.09c-.33.23-.55.23-.76,0a3.5,3.5,0,0,0-3.1-1.31,3.7,3.7,0,0,0-2,.58c-.24.14-.54.24-.7-.06a.66.66,0,0,0-.68-.35c-1.23,0-2.46,0-3.68,0a.78.78,0,0,0-.86.89Zm20.86-2.18c0,1.74,0,3.47,0,5.2a.81.81,0,0,0,.88.91q1.74,0,3.48,0a.8.8,0,0,0,.86-.89c0-.73,0-1.46,0-2.19a.84.84,0,0,1,.1-.29.91.91,0,0,1,.21.23c.41.88.81,1.76,1.21,2.64a.75.75,0,0,0,.79.51c1.29,0,2.57,0,3.85,0,.66,0,.85-.29.61-.9l-1.82-4.44c-.12-.28-.12-.48.22-.58s.69-.25,1-.37c1.15-.41.91-.32.92-1.36,0-.42-.12-.51-.53-.4l-2.65.74-3.24.9c-.52.14-.71,0-.72-.54,0-1.44,0-2.88,0-4.33,0-.64-.28-.93-.91-.93h-3.37c-.66,0-.94.29-.94.95Q1180.74,19.12,1180.75,21.7Zm28.9,2.19V20.94c0-.73-.27-1-1-1h-3.17c-.71,0-.89.14-1.08.84-.07.25-.21.31-.44.21l-.43-.2a7,7,0,0,0-4.61-.6,8.41,8.41,0,0,0-3.57,1.62,2.64,2.64,0,0,0,.17,4.34,9.82,9.82,0,0,0,1.71.95,6.88,6.88,0,0,0,3.74.67,7.47,7.47,0,0,0,2.9-.89c.32-.2.47-.11.55.25a.8.8,0,0,0,.86.69q1.76,0,3.51,0a.79.79,0,0,0,.84-.87C1209.66,25.92,1209.65,24.9,1209.65,23.89Zm-51.66,0v-3c0-.66-.28-.95-.94-.95h-3.27c-.69,0-1,.29-1,1V24.7a.88.88,0,0,1-.44.84,1,1,0,0,1-1.49-.86c0-1.28,0-2.56,0-3.85a.79.79,0,0,0-.79-.89c-1.2,0-2.41,0-3.61,0a.73.73,0,0,0-.78.75c0,1.22,0,2.45,0,3.67a3.86,3.86,0,0,0,6.35,2.69c.34-.32.48-.29.68.15a1,1,0,0,0,.94.62h3.41a.79.79,0,0,0,.88-.9Zm53.53,0v3a.81.81,0,0,0,.89.91c1.15,0,2.29,0,3.44,0a.8.8,0,0,0,.89-.9V23.52a2.57,2.57,0,0,1,.06-.55.94.94,0,0,1,1-.84c.47.05.7.38.7,1v3.74c0,.62.29.93.9.93q1.65,0,3.3,0a.82.82,0,0,0,.89-.91c0-1,0-2,0-2.95a4.63,4.63,0,0,0-.25-1.58,3.93,3.93,0,0,0-4.25-2.37,3.79,3.79,0,0,0-1.62.6c-.34.24-.63.19-.75-.11a.89.89,0,0,0-.9-.56h-3.37a.82.82,0,0,0-.93.95Z" transform="translate(0.03 0.21)"/><path class="cls-2" d="M1235.17,24c0,.44,0,.88,0,1.31a.73.73,0,0,1-.23.45,2.31,2.31,0,0,1-2.43.26,2.23,2.23,0,0,1-1.36-1.94,2.31,2.31,0,0,1,2.13-2.36,2.87,2.87,0,0,1,1,.13c.78.24.89.41.89,1.21Z" transform="translate(0.03 0.21)"/><path class="cls-2" d="M1204.43,24c0,.46,0,.92,0,1.38a.54.54,0,0,1-.16.35,2.3,2.3,0,0,1-2.55.28,2.23,2.23,0,0,1,.13-4.09,2.29,2.29,0,0,1,2.43.34.59.59,0,0,1,.15.35C1204.44,23.06,1204.43,23.52,1204.43,24Z" transform="translate(0.03 0.21)"/><path class="cls-2" d="M980.62,20.86v5.23a.8.8,0,0,0,.91.91H985c.67,0,1-.29,1-1,0-1.36,0-2.73,0-4.09a1,1,0,0,1,.14-.34,3.71,3.71,0,0,1,.27.29.31.31,0,0,1,0,.17c.41,1.49.82,3,1.22,4.47a.55.55,0,0,0,.57.48h4.44c.38,0,.45-.1.36-.47l-1.39-5.38c-.23-.92-.47-1.83-.7-2.75-.12-.45-.06-.55.35-.75L992.7,17a.59.59,0,0,0,.41-.67c0-.32,0-.65,0-1s-.13-.44-.44-.36a2.47,2.47,0,0,0-.29.1l-5.29,2.13a2.43,2.43,0,0,1-.6.17c-.35,0-.51-.1-.51-.47s0-.78,0-1.18c0-.65-.27-.93-.91-.93h-3.51c-.65,0-.92.27-.92.92Z" transform="translate(0.03 0.21)"/><path class="cls-2" d="M1008.71,23.06v3c0,.66.29,1,.94,1H1013c.65,0,.95-.3.95-1V23a9,9,0,0,1,0-1,1,1,0,0,1,.87-1c.53,0,.85.29.85.93,0,1.41,0,2.82,0,4.22a.8.8,0,0,0,.86.9c1.13,0,2.25,0,3.37,0a.8.8,0,0,0,.85-.88c0-1,0-2.08,0-3.12a4.43,4.43,0,0,1,.15-1.15.77.77,0,0,1,1.12-.5.9.9,0,0,1,.42.89c0,1.29,0,2.59,0,3.88a.78.78,0,0,0,.84.88c1.12,0,2.25,0,3.37,0a.78.78,0,0,0,.85-.86c0-1,0-2,0-3.05a4.69,4.69,0,0,0-.2-1.46,4,4,0,0,0-4.6-2.42,5.29,5.29,0,0,0-2.28,1.08c-.33.24-.55.24-.75,0a3.55,3.55,0,0,0-3.11-1.3,3.69,3.69,0,0,0-2,.57c-.24.15-.54.24-.7-.05a.66.66,0,0,0-.68-.36c-1.23,0-2.45,0-3.68,0a.8.8,0,0,0-.86.9Z" transform="translate(0.03 0.21)"/><path class="cls-2" d="M1029.57,20.89v5.2a.81.81,0,0,0,.88.91q1.74,0,3.48,0a.82.82,0,0,0,.87-.9c0-.73,0-1.45,0-2.18a1.18,1.18,0,0,1,.1-.3,1.17,1.17,0,0,1,.21.24c.41.87.81,1.75,1.21,2.64a.75.75,0,0,0,.79.51c1.29,0,2.57,0,3.86,0,.65,0,.85-.29.6-.9l-1.82-4.44c-.11-.28-.12-.48.22-.58s.69-.25,1-.38c1.15-.4.91-.31.92-1.35,0-.43-.12-.51-.53-.4l-2.64.74c-1.09.3-2.16.61-3.25.89-.52.14-.71,0-.71-.53V15.72c0-.64-.29-.94-.92-.94h-3.37c-.66,0-.94.29-.94,1Z" transform="translate(0.03 0.21)"/><path class="cls-2" d="M1006.81,23.08v-3c0-.66-.28-.95-.94-.95h-3.27c-.69,0-1,.29-1,1v3.78a.85.85,0,0,1-.44.83,1,1,0,0,1-1.49-.85c0-1.29,0-2.57,0-3.85a.79.79,0,0,0-.79-.9c-1.2,0-2.41,0-3.61,0a.75.75,0,0,0-.78.76c0,1.22,0,2.45,0,3.67a3.58,3.58,0,0,0,3.32,3.57,3.64,3.64,0,0,0,3-.89c.34-.31.47-.28.67.15a.94.94,0,0,0,.94.62c1.14,0,2.27,0,3.41,0a.8.8,0,0,0,.88-.91C1006.82,25.09,1006.81,24.08,1006.81,23.08Z" transform="translate(0.03 0.21)"/><path class="cls-2" d="M1060.34,23v3.05a.82.82,0,0,0,.89.91c1.15,0,2.29,0,3.44,0a.8.8,0,0,0,.89-.9c0-1.13,0-2.26,0-3.4a2.41,2.41,0,0,1,0-.54,1,1,0,0,1,1-.85c.47.05.7.39.71,1,0,1.24,0,2.49,0,3.74a.81.81,0,0,0,.89.93q1.65,0,3.3,0a.82.82,0,0,0,.89-.92c0-1,0-2,0-2.94a4.73,4.73,0,0,0-.25-1.59,3.9,3.9,0,0,0-4.24-2.36,3.66,3.66,0,0,0-1.63.6c-.34.24-.62.18-.75-.11a.89.89,0,0,0-.9-.56c-1.13,0-2.25,0-3.37,0a.82.82,0,0,0-.93.94Z" transform="translate(0.03 0.21)"/><path class="cls-2" d="M1089.21,20.11c0-.69-.29-1-1-1-1.09,0-2.18,0-3.26,0-.62,0-.85.19-1,.79-.06.29-.19.36-.47.25l-.31-.15a7.1,7.1,0,0,0-4.77-.64,8.47,8.47,0,0,0-3.5,1.6,2.65,2.65,0,0,0,.19,4.38,9.63,9.63,0,0,0,1.43.82,7.18,7.18,0,0,0,6.89-.12c.35-.2.54-.07.55.34v3.46a.86.86,0,0,1-.45.81,3,3,0,0,1-.92.34,25.1,25.1,0,0,1-7.19,0c-.45-.06-.72.15-.73.59s.16.76.65.81c1.34.16,2.68.36,4,.4A39.88,39.88,0,0,0,1088,32a1.28,1.28,0,0,0,1.19-1.43V20.11Zm-5.23,4.4a.7.7,0,0,1-.23.45,2.3,2.3,0,0,1-2.43.25,2.2,2.2,0,0,1-1.35-1.93,2.29,2.29,0,0,1,2.12-2.36,2.86,2.86,0,0,1,1,.12c.78.24.89.42.89,1.22v.93C1084,23.63,1084,24.07,1084,24.51Z" transform="translate(0.03 0.21)"/><path class="cls-2" d="M1058.48,20.13c0-.73-.27-1-1-1h-3.17c-.71,0-.89.13-1.08.83-.06.26-.21.32-.43.22l-.44-.21a7.06,7.06,0,0,0-4.61-.6,8.41,8.41,0,0,0-3.57,1.62,2.64,2.64,0,0,0,.17,4.34,10.2,10.2,0,0,0,1.71.95,6.9,6.9,0,0,0,3.74.68,7.32,7.32,0,0,0,2.9-.9c.32-.19.47-.11.55.26a.82.82,0,0,0,.86.69q1.76,0,3.51,0a.8.8,0,0,0,.85-.88v-6Zm-5.23,4.43a.54.54,0,0,1-.15.35,2.3,2.3,0,0,1-2.55.27,2.1,2.1,0,0,1-1.29-2.14,2.13,2.13,0,0,1,1.42-1.95,2.28,2.28,0,0,1,2.42.34.56.56,0,0,1,.15.36c0,.46,0,.92,0,1.38S1053.26,24.1,1053.25,24.56Z" transform="translate(0.03 0.21)"/><path class="cls-2" d="M1480.29,20.86v5.23a.8.8,0,0,0,.92.91h3.47c.67,0,1-.29,1-1,0-1.36,0-2.73,0-4.09a1.26,1.26,0,0,1,.15-.34,3.71,3.71,0,0,1,.27.29.43.43,0,0,1,0,.17c.41,1.49.82,3,1.22,4.47a.55.55,0,0,0,.58.48h4.43c.38,0,.46-.1.36-.47l-1.38-5.38c-.24-.92-.48-1.83-.71-2.75-.11-.45-.06-.55.36-.75l1.42-.69a.61.61,0,0,0,.41-.67,7.85,7.85,0,0,1,0-1c0-.34-.13-.44-.45-.36-.1,0-.19.07-.29.1l-5.29,2.13a2.48,2.48,0,0,1-.59.17c-.36,0-.51-.1-.52-.47s0-.78,0-1.18c0-.65-.27-.93-.92-.93h-3.51c-.65,0-.92.27-.92.92Z" transform="translate(0.03 0.21)"/><path class="cls-2" d="M1508.38,23.06v3c0,.66.29,1,.94,1h3.34c.64,0,.94-.3.94-1,0-1,0-2.05,0-3.08,0-.35,0-.69,0-1a1,1,0,0,1,.87-1c.53,0,.85.29.85.93,0,1.41,0,2.82,0,4.22a.81.81,0,0,0,.87.9c1.12,0,2.25,0,3.37,0a.79.79,0,0,0,.84-.88c0-1,0-2.08,0-3.12a4,4,0,0,1,.14-1.15.78.78,0,0,1,1.13-.5.91.91,0,0,1,.41.89v3.88a.79.79,0,0,0,.84.88c1.13,0,2.25,0,3.37,0a.78.78,0,0,0,.86-.86c0-1,0-2,0-3.05a4.16,4.16,0,0,0-.2-1.46,4,4,0,0,0-4.6-2.42,5.34,5.34,0,0,0-2.28,1.08c-.32.24-.55.24-.75,0a3.54,3.54,0,0,0-3.1-1.3,3.7,3.7,0,0,0-2,.57c-.23.15-.53.24-.69-.05a.68.68,0,0,0-.69-.36c-1.22,0-2.45,0-3.68,0a.8.8,0,0,0-.86.9Z" transform="translate(0.03 0.21)"/><path class="cls-2" d="M1529.24,20.89v5.2a.82.82,0,0,0,.89.91c1.16,0,2.31,0,3.47,0a.81.81,0,0,0,.87-.9c0-.73,0-1.45,0-2.18a.88.88,0,0,1,.1-.3,1.57,1.57,0,0,1,.21.24c.4.87.81,1.75,1.2,2.64a.77.77,0,0,0,.8.51c1.28,0,2.57,0,3.85,0,.66,0,.85-.29.6-.9-.6-1.48-1.2-3-1.82-4.44-.11-.28-.12-.48.23-.58s.69-.25,1-.38c1.16-.4.91-.31.93-1.35,0-.43-.12-.51-.53-.4l-2.65.74c-1.08.3-2.16.61-3.24.89-.53.14-.72,0-.72-.53V15.72c0-.64-.29-.94-.92-.94h-3.37c-.65,0-.94.29-.94,1Z" transform="translate(0.03 0.21)"/><path class="cls-2" d="M1506.49,23.08v-3c0-.66-.29-.95-1-.95h-3.27c-.69,0-1,.29-1,1q0,1.89,0,3.78a.87.87,0,0,1-.44.83,1,1,0,0,1-1.5-.85c0-1.29,0-2.57,0-3.85a.79.79,0,0,0-.79-.9c-1.21,0-2.41,0-3.62,0a.75.75,0,0,0-.78.76c0,1.22,0,2.45,0,3.67a3.86,3.86,0,0,0,6.36,2.68c.34-.31.47-.28.67.15a1,1,0,0,0,1,.62c1.13,0,2.27,0,3.4,0a.8.8,0,0,0,.89-.91Z" transform="translate(0.03 0.21)"/><path class="cls-2" d="M1560,23c0,1,0,2,0,3.05a.81.81,0,0,0,.89.91c1.14,0,2.29,0,3.43,0a.81.81,0,0,0,.9-.9c0-1.13,0-2.26,0-3.4a2.42,2.42,0,0,1,.06-.54.94.94,0,0,1,1-.85c.47.05.71.39.71,1v3.74a.81.81,0,0,0,.89.93c1.1,0,2.2,0,3.31,0a.82.82,0,0,0,.88-.92c0-1,0-2,0-2.94a4.73,4.73,0,0,0-.25-1.59,3.89,3.89,0,0,0-4.24-2.36,3.71,3.71,0,0,0-1.63.6c-.34.24-.62.18-.75-.11a.87.87,0,0,0-.9-.56c-1.12,0-2.25,0-3.37,0-.63,0-.92.31-.92.94C1560,21.06,1560,22.05,1560,23Z" transform="translate(0.03 0.21)"/><path class="cls-2" d="M1588.88,20.11c0-.69-.29-1-1-1-1.09,0-2.18,0-3.27,0-.61,0-.84.19-1,.79-.07.29-.2.36-.47.25a3,3,0,0,1-.31-.15,7.1,7.1,0,0,0-4.77-.64,8.45,8.45,0,0,0-3.51,1.6,2.65,2.65,0,0,0,.19,4.38,10.16,10.16,0,0,0,1.43.82,7.18,7.18,0,0,0,6.89-.12c.35-.2.55-.07.55.34v3.46a.86.86,0,0,1-.44.81,3.16,3.16,0,0,1-.93.34,25.1,25.1,0,0,1-7.19,0,.57.57,0,0,0-.73.59c0,.49.16.76.65.81,1.34.16,2.69.36,4,.4a39.77,39.77,0,0,0,8.64-.79,1.28,1.28,0,0,0,1.19-1.43V20.11Zm-5.23,4.4a.66.66,0,0,1-.23.45,2.3,2.3,0,0,1-2.43.25,2.22,2.22,0,0,1-1.35-1.93,2.3,2.3,0,0,1,2.13-2.36,2.89,2.89,0,0,1,1,.12c.78.24.88.42.88,1.22v.93C1583.66,23.63,1583.68,24.07,1583.65,24.51Z" transform="translate(0.03 0.21)"/><path class="cls-2" d="M1558.15,20.13c0-.73-.27-1-1-1H1554c-.72,0-.89.13-1.08.83-.07.26-.22.32-.44.22L1552,20a7.05,7.05,0,0,0-4.61-.6,8.38,8.38,0,0,0-3.56,1.62,2.64,2.64,0,0,0,.16,4.34,10.61,10.61,0,0,0,1.71.95,6.9,6.9,0,0,0,3.74.68,7.23,7.23,0,0,0,2.9-.9c.32-.19.47-.11.56.26a.81.81,0,0,0,.86.69c1.16,0,2.33,0,3.5,0a.79.79,0,0,0,.85-.88v-6Zm-5.23,4.43a.49.49,0,0,1-.15.35,2.29,2.29,0,0,1-2.55.27,2.12,2.12,0,0,1-1.29-2.14,2.16,2.16,0,0,1,1.42-1.95,2.28,2.28,0,0,1,2.42.34.51.51,0,0,1,.15.36c0,.46,0,.92,0,1.38S1552.94,24.1,1552.92,24.56Z" transform="translate(0.03 0.21)"/><path class="cls-2" d="M2166.81,20.86v5.23a.8.8,0,0,0,.92.91h3.47c.67,0,1-.29,1-1,0-1.36,0-2.73,0-4.09a1.26,1.26,0,0,1,.15-.34,3.71,3.71,0,0,1,.27.29.69.69,0,0,1,.05.17c.4,1.49.81,3,1.21,4.47a.55.55,0,0,0,.58.48h4.43c.38,0,.46-.1.36-.47l-1.38-5.38c-.24-.92-.48-1.83-.71-2.75-.11-.45-.06-.55.36-.75l1.42-.69a.61.61,0,0,0,.41-.67,7.85,7.85,0,0,1,0-1c0-.34-.13-.44-.45-.36-.1,0-.19.07-.29.1l-5.29,2.13a2.48,2.48,0,0,1-.59.17c-.36,0-.51-.1-.52-.47s0-.78,0-1.18c0-.65-.27-.93-.92-.93h-3.51c-.65,0-.92.27-.92.92Z" transform="translate(0.03 0.21)"/><path class="cls-2" d="M2194.9,23.06v3c0,.66.29,1,.94,1h3.34c.64,0,.94-.3.94-1,0-1,0-2.05,0-3.08,0-.35,0-.69,0-1a1,1,0,0,1,.87-1c.53,0,.85.29.85.93,0,1.41,0,2.82,0,4.22a.81.81,0,0,0,.87.9c1.12,0,2.25,0,3.37,0a.79.79,0,0,0,.84-.88c0-1,0-2.08,0-3.12a4.42,4.42,0,0,1,.14-1.15.78.78,0,0,1,1.13-.5.91.91,0,0,1,.41.89v3.88a.79.79,0,0,0,.84.88c1.13,0,2.25,0,3.37,0a.78.78,0,0,0,.86-.86c0-1,0-2,0-3.05a4.16,4.16,0,0,0-.2-1.46,4,4,0,0,0-4.6-2.42,5.34,5.34,0,0,0-2.28,1.08c-.32.24-.55.24-.75,0a3.54,3.54,0,0,0-3.1-1.3,3.7,3.7,0,0,0-2,.57c-.23.15-.53.24-.69-.05a.68.68,0,0,0-.69-.36c-1.22,0-2.45,0-3.68,0a.8.8,0,0,0-.86.9Z" transform="translate(0.03 0.21)"/><path class="cls-2" d="M2215.76,20.89v5.2a.82.82,0,0,0,.89.91c1.16,0,2.31,0,3.47,0a.81.81,0,0,0,.87-.9c0-.73,0-1.45,0-2.18a.88.88,0,0,1,.1-.3,1.57,1.57,0,0,1,.21.24q.61,1.3,1.2,2.64a.77.77,0,0,0,.8.51c1.28,0,2.57,0,3.85,0,.66,0,.85-.29.6-.9q-.9-2.22-1.81-4.44c-.12-.28-.13-.48.22-.58s.69-.25,1-.38c1.16-.4.91-.31.93-1.35,0-.43-.12-.51-.53-.4l-2.65.74c-1.08.3-2.16.61-3.24.89-.53.14-.72,0-.72-.53V15.72c0-.64-.29-.94-.92-.94h-3.37c-.65,0-.94.29-.94,1Z" transform="translate(0.03 0.21)"/><path class="cls-2" d="M2193,23.08v-3c0-.66-.29-.95-1-.95h-3.27c-.69,0-1,.29-1,1q0,1.89,0,3.78a.87.87,0,0,1-.44.83,1,1,0,0,1-1.5-.85c0-1.29,0-2.57,0-3.85a.79.79,0,0,0-.79-.9c-1.21,0-2.41,0-3.62,0a.75.75,0,0,0-.78.76c0,1.22,0,2.45,0,3.67a3.86,3.86,0,0,0,6.36,2.68c.34-.31.47-.28.67.15a1,1,0,0,0,.95.62c1.13,0,2.27,0,3.4,0a.8.8,0,0,0,.89-.91Z" transform="translate(0.03 0.21)"/><path class="cls-2" d="M2246.54,23c0,1,0,2,0,3.05a.81.81,0,0,0,.89.91c1.14,0,2.29,0,3.44,0a.8.8,0,0,0,.89-.9V22.7a2.42,2.42,0,0,1,.06-.54.94.94,0,0,1,1-.85c.47.05.71.39.71,1v3.74a.81.81,0,0,0,.89.93c1.1,0,2.2,0,3.31,0a.82.82,0,0,0,.88-.92c0-1,0-2,0-2.94a4.73,4.73,0,0,0-.25-1.59,3.89,3.89,0,0,0-4.24-2.36,3.71,3.71,0,0,0-1.63.6c-.34.24-.62.18-.75-.11a.87.87,0,0,0-.9-.56c-1.12,0-2.25,0-3.37,0-.63,0-.92.31-.92.94C2246.53,21.06,2246.54,22.05,2246.54,23Z" transform="translate(0.03 0.21)"/><path class="cls-2" d="M2275.4,20.11c0-.69-.29-1-1-1-1.09,0-2.18,0-3.27,0-.61,0-.84.19-1,.79-.07.29-.2.36-.47.25a3,3,0,0,1-.31-.15,7.1,7.1,0,0,0-4.77-.64,8.45,8.45,0,0,0-3.51,1.6,2.65,2.65,0,0,0,.19,4.38,10.16,10.16,0,0,0,1.43.82,7.18,7.18,0,0,0,6.89-.12c.35-.2.55-.07.55.34v3.46a.86.86,0,0,1-.44.81,3.16,3.16,0,0,1-.93.34,25.1,25.1,0,0,1-7.19,0,.57.57,0,0,0-.73.59c0,.49.16.76.65.81,1.34.16,2.69.36,4,.4a39.77,39.77,0,0,0,8.64-.79,1.28,1.28,0,0,0,1.19-1.43V20.11Zm-5.23,4.4a.66.66,0,0,1-.23.45,2.3,2.3,0,0,1-2.43.25,2.22,2.22,0,0,1-1.35-1.93,2.3,2.3,0,0,1,2.13-2.36,2.89,2.89,0,0,1,1,.12c.78.24.88.42.88,1.22v.93C2270.18,23.63,2270.2,24.07,2270.17,24.51Z" transform="translate(0.03 0.21)"/><path class="cls-2" d="M2244.67,20.13c0-.73-.27-1-1-1h-3.16c-.72,0-.89.13-1.08.83-.07.26-.21.32-.44.22l-.44-.21a7.05,7.05,0,0,0-4.61-.6,8.38,8.38,0,0,0-3.56,1.62,2.64,2.64,0,0,0,.16,4.34,10.61,10.61,0,0,0,1.71.95A6.9,6.9,0,0,0,2236,27a7.23,7.23,0,0,0,2.9-.9c.32-.19.47-.11.56.26a.81.81,0,0,0,.86.69c1.16,0,2.33,0,3.5,0a.79.79,0,0,0,.85-.88v-6Zm-5.23,4.43a.49.49,0,0,1-.15.35,2.29,2.29,0,0,1-2.55.27,2.12,2.12,0,0,1-1.29-2.14,2.16,2.16,0,0,1,1.42-1.95,2.28,2.28,0,0,1,2.42.34.51.51,0,0,1,.15.36c0,.46,0,.92,0,1.38S2239.46,24.1,2239.44,24.56Z" transform="translate(0.03 0.21)"/><path class="cls-2" d="M1357.46.65h0l11.57,2.87,13,3.23,16.36,4.08L1407,13l7.45,1.85,3,.74,12.69,3.16a5.38,5.38,0,0,1,3.53,4.05l.06.58,0,.24a4.74,4.74,0,0,1-3,4.43,12.92,12.92,0,0,1-1.76.49l-.76.19-9.5,2.45-9.4,2.42L1399.79,36,1391,38.32,1369,44l-1.36.35-2.52.65c-2.46.63-4.91,1.26-7.36,1.91l-.27,0a1.61,1.61,0,0,1-.39-.06L1338.26,42l-5.09-1.31L1320,37.31l-11.9-3.07c-2.17-.57-4.35-1.12-6.52-1.68-5.6-1.44-11.4-2.93-17.09-4.43a4.29,4.29,0,0,1-3.21-3.5,5,5,0,0,1,2.57-5.51,6.6,6.6,0,0,1,1.83-.64l.23-.05,11.87-3,5.66-1.41L1320,9.94l11.3-2.81.53-.14,21.49-5.34,4.05-1h0m0-.86a1,1,0,0,0-.25,0l-4.07,1-22,5.47-27.86,6.94-17.54,4.36a8.1,8.1,0,0,0-2.29.8,5.82,5.82,0,0,0-3,6.43A5.15,5.15,0,0,0,1284.3,29c7.86,2.07,15.74,4.07,23.61,6.11l25,6.46,23.92,6.17a2.08,2.08,0,0,0,.6.09,2.12,2.12,0,0,0,.49-.06c3.28-.88,6.58-1.71,9.87-2.56l23.32-6,18.39-4.75,18.9-4.87a25.25,25.25,0,0,0,2.62-.71,5.6,5.6,0,0,0,3.54-5.27c0-.29,0-.59-.09-.89a6.23,6.23,0,0,0-4.17-4.77q-7.83-2-15.67-3.9l-16.07-4-29.34-7.3L1357.71-.18a1.07,1.07,0,0,0-.25,0Z" transform="translate(0.03 0.21)"/><path class="cls-2" d="M1384.1.65h0l11.57,2.87,13,3.23L1425,10.83l8.62,2.14,7.45,1.85,3,.74,12.68,3.16a5.36,5.36,0,0,1,3.53,4.05l.06.58,0,.24a4.74,4.74,0,0,1-3,4.43,12.77,12.77,0,0,1-1.75.49l-.77.19-9.5,2.45-9.4,2.42L1426.43,36l-8.84,2.28-22,5.67-1.36.35-2.52.65c-2.46.63-4.91,1.26-7.36,1.91l-.26,0a1.62,1.62,0,0,1-.4-.06L1364.91,42l-5.09-1.31-13.15-3.39-11.9-3.07c-2.17-.57-4.35-1.12-6.52-1.68-5.6-1.44-11.4-2.93-17.09-4.43a4.29,4.29,0,0,1-3.21-3.5,5,5,0,0,1,2.57-5.51,6.56,6.56,0,0,1,1.84-.64l.22-.05,11.87-3,5.66-1.41,16.57-4.12L1358,7.13l.53-.14L1380,1.65l4-1h0m0-.86a1,1,0,0,0-.25,0l-4.07,1-22,5.47-27.87,6.94-17.54,4.36a8.32,8.32,0,0,0-2.29.8,5.82,5.82,0,0,0-3,6.43,5.17,5.17,0,0,0,3.83,4.14c7.86,2.07,15.74,4.07,23.61,6.11l25,6.46,23.92,6.17a2.15,2.15,0,0,0,.61.09,2.1,2.1,0,0,0,.48-.06c3.29-.88,6.58-1.71,9.88-2.56l23.31-6,18.4-4.75,18.89-4.87a25.25,25.25,0,0,0,2.62-.71,5.59,5.59,0,0,0,3.54-5.27c0-.29,0-.59-.09-.89a6.21,6.21,0,0,0-4.17-4.77q-7.83-2-15.67-3.9l-16.07-4-29.33-7.3L1384.35-.18a1.07,1.07,0,0,0-.25,0Z" transform="translate(0.03 0.21)"/><path class="cls-2" d="M1691.52.65h0l11.57,2.87,13,3.23,16.36,4.08,8.61,2.14,7.46,1.85,3,.74,12.69,3.16a5.38,5.38,0,0,1,3.53,4.05c0,.19,0,.38,0,.58l0,.24a4.77,4.77,0,0,1-3,4.43,12.92,12.92,0,0,1-1.76.49l-.77.19-9.49,2.45-9.4,2.42L1733.85,36,1725,38.32,1703,44l-1.35.35-2.52.65c-2.46.63-4.91,1.26-7.36,1.91a1.31,1.31,0,0,1-.27,0,1.61,1.61,0,0,1-.39-.06L1672.32,42l-5.09-1.31-13.14-3.39-11.9-3.07-6.52-1.68c-5.61-1.44-11.4-2.93-17.09-4.43a4.28,4.28,0,0,1-3.21-3.5,5,5,0,0,1,2.57-5.51,6.6,6.6,0,0,1,1.83-.64l.23-.05,11.87-3,5.66-1.41,16.57-4.12,11.3-2.81.53-.14,21.48-5.34,4-1h.06m0-.86a1.09,1.09,0,0,0-.26,0l-4.07,1-22,5.47-27.87,6.94-17.53,4.36a8.1,8.1,0,0,0-2.29.8,5.82,5.82,0,0,0-3,6.43,5.15,5.15,0,0,0,3.83,4.14C1626.22,31,1634.1,33,1642,35.07l25,6.46,23.91,6.17a2.2,2.2,0,0,0,.61.09,2.12,2.12,0,0,0,.49-.06c3.28-.88,6.58-1.71,9.87-2.56l23.32-6,18.39-4.75,18.9-4.87a26.69,26.69,0,0,0,2.62-.71,5.59,5.59,0,0,0,3.53-5.27c0-.29-.05-.59-.08-.89a6.22,6.22,0,0,0-4.18-4.77q-7.83-2-15.66-3.9l-16.07-4-29.34-7.3L1691.76-.18a.93.93,0,0,0-.24,0Z" transform="translate(0.03 0.21)"/></svg>