<svg id="Layer_1" data-name="Layer 1" xmlns="http://www.w3.org/2000/svg" viewBox="0 0 178.64 166.2"><defs><style>.cls-1{fill:#333;}.cls-2{fill:#434343;}.cls-3{fill:#fff;}.cls-4{fill:#fd7907;}.cls-5{fill:#fdbd47;}.cls-6{fill:#646464;}.cls-7{fill:#e15407;}</style></defs><path class="cls-1" d="M59.24,66.55l-1.32,0c-5-.12-14.44-.36-21,6-3.86,3.77-5.82,8.91-5.82,15.3v7.89c-1.7,0-1,5.44-1,8.92-4.08.12-9.12,3.36-9.12,7.08s3.24,2.86,5.64,2.86h17c4.06,0,4.7,0,4.7-2.38V98c0-1.37,0-2.27-1.29-2.27V87.86c0-1.31.17-3,1-3.84,1.74-1.7,6.93-1.57,9.43-1.5l1.72,0a8,8,0,0,0,0-16Z" transform="translate(32.24 22.49)"/><path class="cls-1" d="M71.67,25.82c-4.42,0-7.56,3.3-8.1,7.87a11.21,11.21,0,0,1-.88,4c-1,2.25-1.84,2.25-2.77,2.25-2.67,0-4.25-2.28-4.78-3.2a8,8,0,0,0-7.29-5.05,5.58,5.58,0,0,0-2.3-2.29,10.18,10.18,0,0,0-7.42-1.08c-5.1,1.08-9.36,4.62-8.88,10.56.14,1.67,3.62,4.09,6.66,1.33,1.27-1.15,2.59-.23,3.79.44a8.17,8.17,0,0,0,1.07,3.16c2.48,4.88,8.84,12.13,19.15,12.13,14.34,0,19.52-12.75,19.64-21.95A8,8,0,0,0,71.67,25.82Z" transform="translate(32.24 22.49)"/><path class="cls-2" d="M103,66.75c0,8.16-4.64,19-23.92,19S53,76.33,53,65.7,94,43.47,103,66.75Z" transform="translate(32.24 22.49)"/><path class="cls-3" d="M92.05,31.43v-22c0-6.6-5.4-11-12-11H78.13c-6.6,0-12,4.4-12,11v22Z" transform="translate(32.24 22.49)"/><path class="cls-4" d="M67.33,13.93h-2.4a2.81,2.81,0,0,1-2.8-2.8h0a2.81,2.81,0,0,1,2.8-2.8h2.4a2.81,2.81,0,0,1,2.8,2.8h0A2.81,2.81,0,0,1,67.33,13.93Z" transform="translate(32.24 22.49)"/><circle class="cls-2" cx="109.05" cy="31.03" r="1.8"/><path class="cls-2" d="M68.15,3.14H82.21c1.44,0,4.56,1,4.56,7.21s3.84,5.76,5.28,5.76,6.12-.39,6.12-13S86.29-12.09,79.09-12.09,66.85-8.73,65.05-3s0,9.29,1.53,9.27A13.65,13.65,0,0,1,68.15,3.14Z" transform="translate(32.24 22.49)"/><path class="cls-5" d="M92.05,23.55H66.13c-2.4,0-4,.48-4,3.36S51,49.71,51,66.75h55.44c2.64,0,2.64-14.88-9.84-35.32C94.45,27.27,96.73,23.55,92.05,23.55Z" transform="translate(32.24 22.49)"/><circle class="cls-2" cx="-10.98" cy="122.45" r="21.26" transform="translate(-95.4 106.12) rotate(-76.72)"/><circle class="cls-1" cx="-10.98" cy="122.45" r="8.99" transform="translate(-97.86 114.49) rotate(-80.78)"/><path class="cls-6" d="M13.52,97.75-7.33,125.87a5,5,0,0,1-6.94,1h0a5,5,0,0,1-1-7L5.54,91.84a5,5,0,0,1,7-1h0A5,5,0,0,1,13.52,97.75Z" transform="translate(32.24 22.49)"/><path class="cls-2" d="M28.93,29.75c-2.55,0-2.85-4.3-3.57-6.8-.82-2.89-3.18-4.37-4.27-3.9s-3.5,2.33-3.41,5,5.89,1.59,6.29,1.59,1.18,3.5,2.14,5.12a2.94,2.94,0,0,0,2.82,1.54C30,32.28,30.06,29.75,28.93,29.75Z" transform="translate(32.24 22.49)"/><circle class="cls-2" cx="121.79" cy="122.45" r="21.26" transform="translate(-18.68 144.47) rotate(-45)"/><circle class="cls-1" cx="121.79" cy="122.45" r="8.99" transform="translate(13.65 245.55) rotate(-80.78)"/><polygon class="cls-1" points="128.62 113.95 142.91 145.93 111.12 145.93 128.62 113.95"/><path class="cls-7" d="M99.64,126.4a2.41,2.41,0,0,1-3.34-1.35,24.47,24.47,0,0,1,43.47-21.82,2.41,2.41,0,0,1-.92,3.49Z" transform="translate(32.24 22.49)"/><rect class="cls-6" x="81.51" y="139.97" width="77.88" height="9.93" rx="4.2"/><path class="cls-4" d="M27.92,124.44c.25-4.06-1.55-5.66-4.17-5.66-5.77,0-9.64.79-10-.7-4.62-17.32-17.88-25-26.22-25C-8.14,72.39,13,45.31,15.77,45.31s10.66.12,15.82.12c2.29-.26-5.16,12.55-5.16,27.45s9.24,41.73,16.39,41.73H61c6,0,5.2-8.62,5.2-17.86s-1.39-7.84,3.24-12.47c5.4-5.4,20.46,0,26.13,0s22.05.23,26.52.23,18.28-1.2,21,1.19-7.69,4.63-17,7.06c-15.27,4-23.36,5.75-26.94,7.54S93.48,105.67,89,115.2s-5.26,13-7.35,15.1S64,131.59,50.57,131.59,27.32,134,27.92,124.44Z" transform="translate(32.24 22.49)"/><path class="cls-7" d="M4.31,58.37C-2.38,64.25-12.88,73.48-11,75.58c1.61,1.77,4.34-1,7.85,6,0,0,8.28-15.7,9.87-19.87S6.17,56.73,4.31,58.37Z" transform="translate(32.24 22.49)"/><path class="cls-3" d="M-10.69,74.34c-1,2.61,1,6.62,1.94,7.19,0,0,1.53-1.39,5.64,0,0,0,.42-5.76-7-7.47A.48.48,0,0,0-10.69,74.34Z" transform="translate(32.24 22.49)"/><path class="cls-7" d="M-28.71,110.72a3.48,3.48,0,0,1-2-5A24.47,24.47,0,0,1-1.35,94a24.49,24.49,0,0,1,16.49,27,3.48,3.48,0,0,1-4.52,2.79Z" transform="translate(32.24 22.49)"/><path class="cls-4" d="M15.7,45.43c-3.78,0-8.94,1.63-4.67-5.72S24.84,26.79,28.61,26.89s7,.5,7,5.36,5.26,3.38,5.26,6.66,1.19,6.67-2.38,6.67S20,45.43,15.7,45.43Z" transform="translate(32.24 22.49)"/><rect class="cls-4" x="134.3" y="54.84" width="42.91" height="50.5" rx="4"/><path class="cls-7" d="M16.8,33c-3.39-.61-6.51-1.17-7.38,0s-4,6.55,0,10.32C10.24,43.88,17,39,16.8,33Z" transform="translate(32.24 22.49)"/><path class="cls-3" d="M9.42,33c.59-.43,1.51,1.65,1.51,4.84s-.64,4.59-1.51,5.48S1.25,38.84,9.42,33Z" transform="translate(32.24 22.49)"/><rect class="cls-2" x="130.15" y="105.34" width="48.49" height="2.84" rx="1.2"/><path class="cls-1" d="M35.71,38.17h0a1.86,1.86,0,0,0-.34,0,2.25,2.25,0,0,0-.3,4.49h0l9.09,1.56V39.66Z" transform="translate(32.24 22.49)"/><path class="cls-2" d="M30.89,29.75c4.51,0,5-4.3,6.31-6.8,1.47-2.89,5.64-4.37,7.56-3.9s6.2,2.33,6.05,5-10.44,1.59-11.13,1.59-2.1,3.5-3.81,5.12a7.05,7.05,0,0,1-5,1.54A1.28,1.28,0,1,1,30.89,29.75Z" transform="translate(32.24 22.49)"/><path class="cls-3" d="M115.55,60.44v-8c0-.84-.06-.88-.88-.81-1,.08-1,.08-1-1,0-1.35,0-2.69-.11-4,0-.38.12-.47.47-.48,3-.08,5.9-.26,8.85-.23A17.86,17.86,0,0,1,130,47.43c2.72,1.23,4.69,3.14,5.21,6.2a8.64,8.64,0,0,1-4.45,9.18,15.81,15.81,0,0,1-6.08,1.85c-.53.06-1.06.12-1.59.13s-.63.22-.63.67c0,1.07,0,2.14,0,3.21,0,.47-.16.64-.64.63-1.9,0-3.8,0-5.71,0-.5,0-.6-.2-.6-.65C115.55,65.91,115.55,63.18,115.55,60.44Zm7-1a7.38,7.38,0,0,0,3.69-.75,3.49,3.49,0,0,0,2-3.57,3,3,0,0,0-2.18-2.81,19.83,19.83,0,0,0-3.16-.72c-.12,0-.43.28-.43.44,0,2.37,0,4.74,0,7.11A1,1,0,0,0,122.6,59.48Z" transform="translate(32.24 22.49)"/><path class="cls-2" d="M48.4,103.75a8,8,0,0,1-8-8V87.86c0-6.39,2-11.53,5.82-15.3,6.56-6.4,16-6.16,21-6l1.32,0a8,8,0,0,1,0,16l-1.72,0c-2.5-.07-7.69-.2-9.43,1.5-.82.8-1,2.53-1,3.84v7.89A8,8,0,0,1,48.4,103.75Z" transform="translate(32.24 22.49)"/><path class="cls-5" d="M40.4,95.75h16c1.29,0,1.29.9,1.29,2.27v14.21c0,2.38-.64,2.38-4.7,2.38H36c-2.4,0-5.64.86-5.64-2.86s5-7,9.12-7.08C39.45,101.19,38.7,95.75,40.4,95.75Z" transform="translate(32.24 22.49)"/><path class="cls-2" d="M78.51,25.82c-4.42,0-7.56,3.3-8.1,7.87a11.21,11.21,0,0,1-.88,4c-1,2.25-1.84,2.25-2.77,2.25-2.67,0-4.25-2.28-4.78-3.2a8,8,0,0,0-15.5,3,7.93,7.93,0,0,0,1.13,4.1c2.48,4.88,8.84,12.13,19.15,12.13C81.1,55.91,86.28,43.16,86.4,34A8,8,0,0,0,78.51,25.82Z" transform="translate(32.24 22.49)"/><path class="cls-3" d="M54.06,38a5.63,5.63,0,0,0-1.67-8.62A10.18,10.18,0,0,0,45,28.29c-5.1,1.08-9.36,4.62-8.88,10.56.14,1.67,3.62,4.09,6.66,1.33,1.8-1.63,3.72.92,5.22,1A8.93,8.93,0,0,0,54.06,38Z" transform="translate(32.24 22.49)"/><path class="cls-5" d="M78.42-12.07c-3.41,0-5.43,4.18-5.55,6.7h5.74s1.93-6.48,5.84-6.24A28.19,28.19,0,0,0,78.42-12.07Z" transform="translate(32.24 22.49)"/><path class="cls-4" d="M76.81-9.87c-3.37-1.4-7.54-6.48-3.94-8.82s4.16,1.48,6.78-1.54c2.22-2.56,4.86-3.32,7-.26s2.74,3.06,5.44,2.52,6,5.76-2,8.1a32.63,32.63,0,0,0-8.25-2C79.8-12.1,76.81-9.87,76.81-9.87Z" transform="translate(32.24 22.49)"/><path class="cls-1" d="M66.14,98c0-7.16,4-10.83,11.15-10.83H97.16c1.1,0,.79-2,.79-2.91,3.78,0,6.56,0,6.56,0s1.39-7.92-4-7.92h-25c-6.56,0-13.41,3-13.41,9.34S60.56,98,66.14,98Z" transform="translate(32.24 22.49)"/><path class="cls-2" d="M46.42,41.94a2.26,2.26,0,1,1-2.26-2.26A2.26,2.26,0,0,1,46.42,41.94Z" transform="translate(32.24 22.49)"/></svg>