<svg id="Layer_1" data-name="Layer 1" xmlns="http://www.w3.org/2000/svg" viewBox="0 0 149.04 74.09"><defs><style>.cls-1{fill:#e15407;}.cls-2{fill:#dcdcdc;}.cls-3{fill:#333;}.cls-4{fill:#434343;}.cls-5{fill:#fff;}.cls-6{fill:#fd7907;}.cls-7{fill:#666;}</style></defs><path class="cls-1" d="M41.61,85.36H10.17c-5.28,0-12.29-2.66-15.2-8.5-1.09-2.18-3.06-8,2.09-14.82s6.59-8.6,6.72-8.76A8,8,0,1,1,16.07,63.52s-1,1.21-4.49,5.84h30a8,8,0,0,1,0,16ZM9.53,72.14Z" transform="translate(6.32 -25.97)"/><path class="cls-2" d="M19.18,59.79c-6.59,3.65-16.27.64-15.55-10.28S35.49,37.62,19.18,59.79Z" transform="translate(6.32 -25.97)"/><path class="cls-3" d="M74.59,85.39a8,8,0,0,1-6.81-12.18c5.7-9.28,19.46-23.46,34.92-17.71,10.56,3.94,14.26,13.9,14.78,19.17l-15.92,1.57v.14c-.06-.46-.71-4.49-4.46-5.88-5.34-2-13,6.79-15.7,11.11A8,8,0,0,1,74.59,85.39Z" transform="translate(6.32 -25.97)"/><path class="cls-2" d="M100.82,74c4.32,2,13.87,2.2,15.91-3,0,0,9.17,6.16,11.46,8.68s.36,6.12-6.48,7.92-11.88-2.16-13.86-2.16-5.22-.72-6.66-3.06S100.82,74,100.82,74Z" transform="translate(6.32 -25.97)"/><path class="cls-4" d="M119.81,99.43H64.62a8,8,0,0,1,0-16h55.19a8,8,0,0,1,0,16Z" transform="translate(6.32 -25.97)"/><path class="cls-4" d="M81.13,51.82a1,1,0,0,0-.34-.12C66.6,49.49,57.06,61.4,52.87,73.29c-3.17,9-3.78,20.12,1.34,23.07A20.47,20.47,0,0,0,64.47,99.3a17.76,17.76,0,0,0,5.58-.9c5.94-2,11.29-7,15.91-15C97.52,63.36,85.19,54.16,81.13,51.82Z" transform="translate(6.32 -25.97)"/><path class="cls-5" d="M44.57,44.52l-19-11c-5.72-3.3-12.23-.82-15.53,4.89l-1,1.66c-3.3,5.72-2.19,12.6,3.53,15.9l19,11Z" transform="translate(6.32 -25.97)"/><rect class="cls-1" x="16.53" y="42.76" width="8" height="5.6" rx="2.8" transform="translate(-22.87 14.58) rotate(-60)"/><circle class="cls-4" cx="28.45" cy="11.64" r="1.8"/><path class="cls-6" d="M37.74,40.58,24.78,63c-1.2,2.07-1.58,3.7.91,5.14s13.17,19.32,27,28.35a2.18,2.18,0,0,0,3.07-.73l26.6-46.08c1.32-2.29-11.56-9.73-35.5-9.14C42.16,40.36,40.08,36.53,37.74,40.58Z" transform="translate(6.32 -25.97)"/><circle class="cls-4" cx="20.71" cy="25.05" r="1.8"/><path class="cls-6" d="M58.53,67.79a8,8,0,0,1-4.87-14.35S60,48.05,58,45.08c-.24-.36-.56-.72-.72-.74-1.17-.17-3.81,1.14-5.32,2.37a8,8,0,0,1-10.3-12.24c1.43-1.21,9-7.18,17.76-6a16.73,16.73,0,0,1,11.8,7.59c7.4,10.85,1.13,23.19-7.83,30.07A8,8,0,0,1,58.53,67.79Z" transform="translate(6.32 -25.97)"/><path class="cls-4" d="M7.22,34.1c-5.75-2-7.94,3-7.37,6.3.72,4.2,4.34,5.22,1.81,6.12S.19,51.39,3.26,51c0,0,.9,4.91,5.84,1.8,2.87-1.8,3.48-9.71.35-13.4,0,0,2.39-4.7,6.79-6.45a11.47,11.47,0,0,1,8-.1s3.83-3.09,1.13-5.7-4.82-.27-4.79.63S11,21.8,7.22,34.1Z" transform="translate(6.32 -25.97)"/><path class="cls-5" d="M116.25,83.43a12.78,12.78,0,0,1,2.52,16c4.34.65,14.12.84,16.68.37,2.3-.42,8.4-1.5,7.08-7.8-.64-3.07-5.94-3.82-9.17-5.65s-5.06-5.06-8.4-4.84A47.94,47.94,0,0,0,116.25,83.43Z" transform="translate(6.32 -25.97)"/><rect class="cls-1" x="33.76" y="43.86" width="15.31" height="27.52" rx="4" transform="translate(-10.89 -8.33) rotate(-20)"/><circle class="cls-4" cx="47.76" cy="21.73" r="2.08"/><circle class="cls-7" cx="47.76" cy="21.73" r="0.88"/><path class="cls-5" d="M54,52.82c-1.8.54-9.36-.72-10.26,5.58s3.11,11.52,12.9,10.44S57.58,52.51,54,52.82Z" transform="translate(6.32 -25.97)"/></svg>