<svg id="Layer_1" data-name="Layer 1" xmlns="http://www.w3.org/2000/svg" viewBox="0 0 54.78 48.44"><defs><style>.cls-1{fill:#fff;}.cls-2{fill:#d2d2d2;}.cls-3{fill:#fd7907;}</style></defs><circle class="cls-1" cx="23.4" cy="23.4" r="23.4"/><circle class="cls-1" cx="35.62" cy="39.7" r="8.74"/><circle class="cls-1" cx="51.08" cy="42" r="3.7"/><path class="cls-2" d="M61.68,69V67.2L57.47,63A1.78,1.78,0,0,1,60,60.47l4.21,4.21H66a1.79,1.79,0,0,1,0,3.57h-.74V69a1.78,1.78,0,0,1-1.79,1.78A1.78,1.78,0,0,1,61.68,69Z" transform="translate(-32.23 -35.37)"/><path class="cls-3" d="M47.08,50.07a8.05,8.05,0,0,1,11.35,0l1.9,1.9a8.05,8.05,0,0,1,1.75,8.71,2.68,2.68,0,0,1-.18,3.59l-.63.63a2.68,2.68,0,0,1-3.59.18A8.06,8.06,0,0,1,49,63.32l-1.89-1.89A8,8,0,0,1,47.08,50.07Z" transform="translate(-32.23 -35.37)"/></svg>