<svg id="Layer_3" data-name="Layer 3" xmlns="http://www.w3.org/2000/svg" viewBox="0 0 1921 1080"><defs><style>.cls-1{fill:#333;}</style></defs><path class="cls-1" d="M1850.06,129.94A238.72,238.72,0,0,0,1702,60.5h218v-1H1440.5V0h-1V59.5h-479V0h-1V59.5h-239V0h-1V59.5h-479V0h-1V59.5H0v1H239.5v63.4A483.76,483.76,0,0,0,63.9,299.5H0v1H63.32a480.33,480.33,0,0,0,0,479H0v1H63.9A483.76,483.76,0,0,0,239.5,956.1v63.4H0v1H239.5V1080h1v-59.5h479V1080h1v-59.5h239V1080h1v-59.5h479V1080h1v-59.5H1920v-1H1702a240.51,240.51,0,0,0,0-479h218v-1H1702a240.79,240.79,0,0,0,210.4-177.2c.67-2.52,1.3-5.06,1.89-7.6.27-1.13.52-2.27.76-3.4a242.2,242.2,0,0,0,5.47-51.3h0A239,239,0,0,0,1850.06,129.94ZM239.5,954.7A483.08,483.08,0,0,1,65.3,780.5H239.5Zm0-175.2H64.71A476.62,476.62,0,0,1,.5,540.5h239Zm0-240H.5a476.62,476.62,0,0,1,64.21-239H239.5Zm0-240H65.3A483.08,483.08,0,0,1,239.5,125.3Zm1,0c.27-131.83,107.6-239,239.49-239s239.22,107.17,239.49,239Zm479,1c-.27,131.83-107.6,239-239.49,239s-239.22-107.17-239.49-239Zm-479-240H448.7a478.65,478.65,0,0,0-208.2,62.82Zm0,64.21a476.14,476.14,0,0,1,208.29-63.2A240.57,240.57,0,0,0,240.5,278Zm0,197.27A240.52,240.52,0,0,0,458,539.5H240.5Zm0,218.52H698a240.49,240.49,0,0,0-218.51,239h-239Zm0,479V956.68a478.65,478.65,0,0,0,208.2,62.82Zm0-64.21V780.5h239A241,241,0,0,0,619.74,998.73,479.37,479.37,0,0,1,240.5,955.29Zm270.8,64.21a476.64,476.64,0,0,0,110-20.08A238.74,238.74,0,0,0,698,1019.5Zm208.2,0a238.13,238.13,0,0,1-96.61-20.58q22.38-7,44.14-16.17a480.5,480.5,0,0,0,52.47-26.06Zm0-64.2a476.89,476.89,0,0,1-98.14,42.94c-82.85-37.59-140.65-121-140.85-217.73h239Zm0-175.79h-239c.27-131.66,107.33-238.72,239-239Zm0-240H502A240.52,240.52,0,0,0,719.5,322Zm0-261.48A240.57,240.57,0,0,0,511.21,61.51a476.14,476.14,0,0,1,208.29,63.2Zm0-154.7A478.65,478.65,0,0,0,511.3,60.5H719.5Zm1,2A483.08,483.08,0,0,1,894.7,299.5H720.5Zm0,175.2H895.29a476.62,476.62,0,0,1,64.21,239h-239Zm0,240h239a476.62,476.62,0,0,1-64.21,239H720.5Zm0,240H894.7A483.08,483.08,0,0,1,720.5,954.7Zm239,239h-239V956.1A483.76,483.76,0,0,0,896.1,780.5h63.4Zm0-240H896.68A478.65,478.65,0,0,0,959.5,571.3Zm0-270.8a478.65,478.65,0,0,0-62.82-208.2H959.5Zm0-209.2H896.1A483.76,483.76,0,0,0,720.5,123.9V60.5h239Zm1-239H1178A240.52,240.52,0,0,0,960.5,278Zm0,261.48A240.52,240.52,0,0,0,1178,539.5H960.5Zm0,218.52H1178A240.52,240.52,0,0,0,960.5,758Zm239.5,0c131.89,0,239.22,107.17,239.49,239h-479C960.78,647.67,1068.11,540.5,1200,540.5Zm-239.5,479V802A240.52,240.52,0,0,0,1178,1019.5Zm0-239h479c-.27,131.83-107.6,239-239.49,239S960.78,912.33,960.51,780.5Zm479,239H1222A240.52,240.52,0,0,0,1439.5,802Zm0-261.48A240.52,240.52,0,0,0,1222,540.5H1439.5Zm0-218.52H1200c-131.89,0-239.22-107.17-239.49-239h479Zm0-240h-479c.27-131.83,107.6-239,239.49-239h239.5Zm1-239H1658A240.52,240.52,0,0,0,1440.5,278Zm0,261.48A240.52,240.52,0,0,0,1658,539.5H1440.5ZM1680,1019.5H1440.5v-239h479C1919.22,912.33,1811.89,1019.5,1680,1019.5Zm239.49-240h-479v-239H1680C1811.89,540.5,1919.22,647.67,1919.49,779.5ZM1680,539.5c-131.89,0-239.22-107.17-239.49-239h479C1919.22,432.33,1811.89,539.5,1680,539.5Zm-239.49-240c.27-131.83,107.6-239,239.49-239s239.22,107.17,239.49,239Z" transform="translate(0.5)"/></svg>