<svg id="Layer_1" data-name="Layer 1" xmlns="http://www.w3.org/2000/svg" viewBox="0 0 40 40"><defs><style>.cls-1{fill:#333;}</style></defs><path class="cls-1" d="M40,44.71c-.31.35-.65.7-1,1.06a5.85,5.85,0,0,1-1.28,1,7.45,7.45,0,0,1-1.71.72,7.91,7.91,0,0,1-2.3.28,7.71,7.71,0,0,1-2.85-.52,6.58,6.58,0,0,1-2.31-1.55A7.24,7.24,0,0,1,27,43.15a9.68,9.68,0,0,1-.56-3.45,13.51,13.51,0,0,1,.48-3.6,13,13,0,0,1,1.24-3,11.07,11.07,0,0,1,3.87-4,9.77,9.77,0,0,1,2.18-1,6.81,6.81,0,0,1,2-.34,5.49,5.49,0,0,1,2.49.5,7.68,7.68,0,0,1,1.48.93l.18-1h5.14L44.17,38.44a3,3,0,0,0-.07.43c0,.24-.06.49-.09.77s-.06.52-.08.75,0,.36,0,.4a5.27,5.27,0,0,0,.05.65,2.05,2.05,0,0,0,.22.66,1.44,1.44,0,0,0,.45.5,1.23,1.23,0,0,0,.75.21A2.81,2.81,0,0,0,47.43,42a6.12,6.12,0,0,0,1.3-2,12,12,0,0,0,.68-2.51,16.44,16.44,0,0,0,.2-2.37A15.11,15.11,0,0,0,49,30.78a8.48,8.48,0,0,0-2-3.49A9.85,9.85,0,0,0,43.2,25a17.39,17.39,0,0,0-5.82-.86,17.15,17.15,0,0,0-4.69.59,14.44,14.44,0,0,0-3.76,1.63,12.24,12.24,0,0,0-2.84,2.45,14.73,14.73,0,0,0-2,3.06,15.8,15.8,0,0,0-1.17,3.41,17.21,17.21,0,0,0-.38,3.55,18,18,0,0,0,.63,4.84,9.76,9.76,0,0,0,2.17,4,10.62,10.62,0,0,0,4.09,2.69,17.92,17.92,0,0,0,6.37,1c.85,0,1.64,0,2.35-.08a17.9,17.9,0,0,0,2-.24c.6-.11,1.17-.24,1.69-.39A15,15,0,0,0,43.37,50l1.39,6.12a12.52,12.52,0,0,1-1.91.64c-.73.19-1.5.35-2.31.49s-1.64.23-2.48.31-1.66.1-2.44.1A25.78,25.78,0,0,1,27,56.35a16.06,16.06,0,0,1-6.12-3.79,15.58,15.58,0,0,1-3.64-6A23.75,23.75,0,0,1,16,38.78a21.7,21.7,0,0,1,.73-5.62,20.81,20.81,0,0,1,2.07-5,20.12,20.12,0,0,1,3.24-4.27,20.8,20.8,0,0,1,4.26-3.31,20.11,20.11,0,0,1,5.13-2.13,21.9,21.9,0,0,1,5.84-.74,24.56,24.56,0,0,1,5.91.67A19,19,0,0,1,48,20.19,15.11,15.11,0,0,1,51.56,23a15.73,15.73,0,0,1,2.52,3.55,16.3,16.3,0,0,1,1.48,4.06A20,20,0,0,1,56,35a17.89,17.89,0,0,1-.67,4.83,12.69,12.69,0,0,1-2,4.08A9.87,9.87,0,0,1,50,46.73a10.07,10.07,0,0,1-4.79,1.05,7.15,7.15,0,0,1-1.68-.19,5.51,5.51,0,0,1-1.5-.58,5.17,5.17,0,0,1-1.22-1A3.93,3.93,0,0,1,40,44.71ZM34.66,43A3.47,3.47,0,0,0,36,42.71a4.17,4.17,0,0,0,1-.66,5.58,5.58,0,0,0,.85-.95A12.33,12.33,0,0,0,38.6,40l.83-5.6a2.76,2.76,0,0,0-.55-.72,4.31,4.31,0,0,0-.69-.54,3.64,3.64,0,0,0-.76-.33,3,3,0,0,0-.75-.11,3.57,3.57,0,0,0-1.89.54,5.4,5.4,0,0,0-1.56,1.46,7.26,7.26,0,0,0-1.06,2.14,8.67,8.67,0,0,0-.39,2.63,5.94,5.94,0,0,0,.15,1.35,3,3,0,0,0,.51,1.12,2.5,2.5,0,0,0,.9.77A2.86,2.86,0,0,0,34.66,43Z" transform="translate(-16.04 -17.68)"/></svg>