<svg id="Layer_1" data-name="Layer 1" xmlns="http://www.w3.org/2000/svg" viewBox="0 0 40 40"><defs><style>.cls-1{fill:#e9882b;}.cls-2{fill:#fefdfd;}.cls-3{fill:#fefdfc;}</style></defs><rect class="cls-1" width="40" height="40" rx="16"/><path class="cls-2" d="M15.29,22l-2.38,1.92c-.72.58-1.44,1.15-2.16,1.74a3,3,0,0,1-1.13.57,1.25,1.25,0,0,1-1.35-.32,1.42,1.42,0,0,1-.19-1.48,2.28,2.28,0,0,1,.85-1l4.33-3.37c1.3-1,2.62-2,3.87-3.08l.36-.32-.4,0-4.34.06a2.33,2.33,0,0,1-.69-.08.88.88,0,0,1-.54-1.3,1.69,1.69,0,0,1,1.6-.92H17l5.55,0,.23,0c0-.14-.12-.17-.19-.24L19.94,12l-.2-.16a.93.93,0,0,1-.41-.91,1,1,0,0,1,.81-.74,1.58,1.58,0,0,1,1.15.12,3.91,3.91,0,0,1,.77.5l6.47,5a8.78,8.78,0,0,1,2.91,3.61A7.28,7.28,0,0,1,28.92,28a8.76,8.76,0,0,1-12.33-1.83,6.83,6.83,0,0,1-1.27-4A1.05,1.05,0,0,0,15.29,22Zm8.22,4.21A5.47,5.47,0,0,0,27,25.07a4.53,4.53,0,0,0,.6-6.64,5.46,5.46,0,0,0-7.8-.16,4.47,4.47,0,0,0,0,6.41A5.18,5.18,0,0,0,23.51,26.23Z" transform="translate(0.04 0.04)"/><path class="cls-3" d="M23.58,24.32a3.22,3.22,0,0,1-2.25-.95,2.75,2.75,0,0,1,.13-4.1,3.41,3.41,0,0,1,4.52.05,2.63,2.63,0,0,1,.84,2.75,3,3,0,0,1-2.27,2.15A3.4,3.4,0,0,1,23.58,24.32Z" transform="translate(0.04 0.04)"/></svg>