<svg id="Layer_1" data-name="Layer 1" xmlns="http://www.w3.org/2000/svg" viewBox="0 0 40 40"><defs><style>.cls-1{fill:#0769ac;}.cls-2{fill:#fcfdfd;}.cls-3{fill:#fafcfd;}</style></defs><rect class="cls-1" width="40" height="40" rx="16"/><path class="cls-2" d="M31.32,25.3a10.48,10.48,0,0,1-7.52,5.83,13.27,13.27,0,0,1-15-8.31,10.27,10.27,0,0,1-.27-7.26,7.29,7.29,0,0,1,1.17-2.18l1.19-1.5.06,0A10.32,10.32,0,0,0,10.13,16a11.92,11.92,0,0,0,3,7.58A13.44,13.44,0,0,0,20,28a11.74,11.74,0,0,0,9.11-1,9.51,9.51,0,0,0,2.13-1.77Z" transform="translate(0.04 -0.02)"/><path class="cls-2" d="M32,19.18A6,6,0,0,1,31,20.8a8.11,8.11,0,0,1-6.54,3.07,9.65,9.65,0,0,1-9.31-7.24,7,7,0,0,1,1.17-5.93L17,9.82l.07-.05c.06.05,0,.1,0,.15a7.19,7.19,0,0,0,.33,6.36,9.64,9.64,0,0,0,8.77,5.5,6.93,6.93,0,0,0,5.58-2.45C31.78,19.27,31.81,19.18,32,19.18Z" transform="translate(0.04 -0.02)"/><path class="cls-3" d="M31,15.1a3.43,3.43,0,0,1-1.39,1.48,5.3,5.3,0,0,1-5.16.12A5.77,5.77,0,0,1,21,12.26a4.42,4.42,0,0,1,1-3.58.11.11,0,0,1,.13,0c-.69,2.51.23,4.46,2.15,6a5.42,5.42,0,0,0,2.11,1,6.6,6.6,0,0,0,2.38.24A4.48,4.48,0,0,0,31,15.1Z" transform="translate(0.04 -0.02)"/></svg>