<svg id="Layer_1" data-name="Layer 1" xmlns="http://www.w3.org/2000/svg" viewBox="0 0 40 40"><defs><style>.cls-1{fill:#00005b;}.cls-2{fill:#99f;}</style></defs><rect class="cls-1" width="40" height="40" rx="16"/><path class="cls-2" d="M16.91,23.5H13.39l-.69,2.87H9.79l3.69-12.5h3.43l3.7,12.5h-3Zm-.54-2.32-.26-1.06c-.32-1.24-.62-2.74-.94-4H15.1c-.29,1.31-.61,2.77-.91,4l-.26,1.06Z" transform="translate(0.04 -0.03)"/><path class="cls-2" d="M21.11,21.6c0-3.11,2.12-5,4.33-5,2.62,0,3.9,2,3.9,4.62a5.28,5.28,0,0,1-.13,1.27H23.87a2.1,2.1,0,0,0,2.27,1.85,3.57,3.57,0,0,0,1.92-.6l1,1.79a5.71,5.71,0,0,1-3.27,1.1C23.13,26.61,21.11,24.76,21.11,21.6Zm5.81-1.08c0-.95-.4-1.66-1.44-1.66-.78,0-1.47.52-1.66,1.66Z" transform="translate(0.04 -0.03)"/></svg>