<svg id="Layer_1" data-name="Layer 1" xmlns="http://www.w3.org/2000/svg" viewBox="0 0 40 40"><defs><style>.cls-1{fill:#470137;}.cls-2{fill:#ff61f6;}</style></defs><rect class="cls-1" width="40" height="40" rx="16"/><path class="cls-2" d="M13.13,20,10,13.9h3.19l1,2.24c.25.58.52,1.24.86,2.05h.06c.28-.81.53-1.47.77-2.05l.87-2.24h3L16.7,20.1,20,26.4H16.8L15.69,24c-.29-.65-.56-1.31-.88-2.08h-.06c-.29.77-.55,1.43-.82,2.08l-1,2.44H9.85Z" transform="translate(-0.02 -0.06)"/><path class="cls-2" d="M20.54,21.63c0-3.14,1.87-5,3.76-5a2.77,2.77,0,0,1,2.19,1l-.11-1.43V13h2.86V26.4H26.92l-.21-.92h-.06a3.47,3.47,0,0,1-2.38,1.16C22,26.64,20.54,24.74,20.54,21.63Zm5.84,1.75V19.61A2,2,0,0,0,25,19c-.78,0-1.5.78-1.5,2.54s.57,2.6,1.55,2.6A1.46,1.46,0,0,0,26.38,23.38Z" transform="translate(-0.02 -0.06)"/></svg>