<svg id="Layer_1" data-name="Layer 1" xmlns="http://www.w3.org/2000/svg" viewBox="0 0 40 40"><defs><style>.cls-1{fill:#ff6d29;}.cls-2{fill:#fff;}</style></defs><rect class="cls-1" width="40" height="40" rx="16"/><path class="cls-2" d="M11.93,8.11H13V9.63h1.46V8.11h1.07v4H14.47V10.47H13v1.65H11.93Z" transform="translate(-0.08 -0.13)"/><path class="cls-2" d="M17.44,8.91H16.23v-.8h3.49v.8H18.51v3.21H17.44Z" transform="translate(-0.08 -0.13)"/><path class="cls-2" d="M20.42,8.11h1.15l.71,1.73c.09.23.16.49.25.73h0c.09-.24.16-.5.24-.73l.69-1.73h1.16v4h-1V10.75a13.27,13.27,0,0,1,.14-1.4h0l-.38,1-.6,1.46h-.58l-.61-1.46-.36-1h0a13.27,13.27,0,0,1,.14,1.4v1.37h-1Z" transform="translate(-0.08 -0.13)"/><path class="cls-2" d="M25.68,8.11h1.07v3.2h1.73v.81h-2.8Z" transform="translate(-0.08 -0.13)"/><path class="cls-2" d="M11.08,14.13l2,16,7,2,7-2,2-16Zm14.36,3.39c-.11.53-.21,1.06-.27,1.6,0,.28-.15.34-.41.33h-6c-.48,0-.95,0-1.43,0-.27,0-.34.09-.25.33v0c.11.39.11.91.36,1.12s.74.06,1.13.07h5.78c.3,0,.39.07.35.37-.24,2.1-.47,4.21-.7,6.31a.43.43,0,0,1-.31.41c-1.13.43-2.25.88-3.36,1.34a.64.64,0,0,1-.47,0c-1.13-.46-2.26-.92-3.4-1.36a.42.42,0,0,1-.29-.35c-.17-.85-.34-1.7-.52-2.55-.05-.24,0-.31.26-.31.53,0,1,0,1.58,0,.23,0,.33.08.35.29,0,0,0,.08,0,.11a1.68,1.68,0,0,0,1.39,1.64,2.4,2.4,0,0,0,1.67,0c.81-.28,1.3-.65,1.25-1.59a7.65,7.65,0,0,1,.19-1.57c.05-.31,0-.41-.35-.4H16.42c-1,0-1,0-1.11-1-.19-1.62-.39-3.25-.6-4.87,0-.27,0-.34.3-.33,1.68,0,3.37,0,5.06,0s3.35,0,5,0C25.41,17.12,25.51,17.19,25.44,17.52Z" transform="translate(-0.08 -0.13)"/></svg>