<svg id="Layer_1" data-name="Layer 1" xmlns="http://www.w3.org/2000/svg" xmlns:xlink="http://www.w3.org/1999/xlink" viewBox="0 0 40 40"><defs><style>.cls-1{fill:url(#linear-gradient);}.cls-2{fill:#fff;}</style><linearGradient id="linear-gradient" y1="20" x2="40" y2="20" gradientUnits="userSpaceOnUse"><stop offset="0" stop-color="#8e12fd"/><stop offset="1" stop-color="#6a10f3"/></linearGradient></defs><rect class="cls-1" width="40" height="40" rx="16"/><path class="cls-2" d="M15,12.73h4.9c3,0,5.36.93,5.36,3.83a3.56,3.56,0,0,1-2,3.36V20A3.5,3.5,0,0,1,26,23.7c0,3.12-2.48,4.57-5.74,4.57H15Zm4.68,6.32c1.88,0,2.7-.79,2.7-2s-.88-1.91-2.66-1.91H18v3.94ZM20,25.88c2,0,3.12-.76,3.12-2.37S22.06,21.36,20,21.36H18v4.52Z" transform="translate(0.01 0.01)"/></svg>