<svg id="Layer_1" data-name="Layer 1" xmlns="http://www.w3.org/2000/svg" viewBox="0 0 40 40"><defs><style>.cls-1{fill:#379ad6;}.cls-2{fill:#fff;}</style></defs><rect class="cls-1" width="40" height="40" rx="16"/><path class="cls-2" d="M14.62,10.09A2,2,0,0,1,16.75,8a2,2,0,0,1,1.35.52l-.56.62a1.15,1.15,0,0,0-.78-.32,1.12,1.12,0,0,0-1.05,1.25c0,.8.41,1.26,1,1.26A1.21,1.21,0,0,0,17.6,11l.57.6a2,2,0,0,1-1.46.6A2,2,0,0,1,14.62,10.09Z" transform="translate(0.02 -0.08)"/><path class="cls-2" d="M18.34,11.58l.61-.67a1.86,1.86,0,0,0,1.08.41c.4,0,.59-.13.59-.35s-.25-.3-.63-.45l-.57-.22a1.2,1.2,0,0,1-.91-1.1c0-.67.67-1.21,1.62-1.21a2.15,2.15,0,0,1,1.45.53l-.53.6a1.57,1.57,0,0,0-.92-.31c-.33,0-.53.12-.53.34s.28.31.67.45l.56.2a1.12,1.12,0,0,1,.88,1.1c0,.67-.62,1.26-1.7,1.26A2.71,2.71,0,0,1,18.34,11.58Z" transform="translate(0.02 -0.08)"/><path class="cls-2" d="M22,11.58l.61-.67a1.87,1.87,0,0,0,1.09.41c.39,0,.58-.13.58-.35s-.25-.3-.63-.45l-.57-.22a1.2,1.2,0,0,1-.91-1.1c0-.67.67-1.21,1.62-1.21a2.15,2.15,0,0,1,1.45.53l-.53.6a1.54,1.54,0,0,0-.92-.31c-.33,0-.53.12-.53.34s.28.31.68.45l.55.2a1.13,1.13,0,0,1,.89,1.1c0,.67-.63,1.26-1.71,1.26A2.71,2.71,0,0,1,22,11.58Z" transform="translate(0.02 -0.08)"/><path class="cls-2" d="M11,14.08l2,16,7,2,7-2,2-16Zm14.17,3.27c0,.51-.08,1-.11,1.52a.35.35,0,0,1-.26.35l-4.33,1.83a.65.65,0,0,0-.29.16.63.63,0,0,0,.33,0c1.32,0,2.65,0,4,0,.27,0,.37.05.34.35-.14,1.58-.27,3.16-.4,4.74,0,.36-.06.71-.08,1.06a.25.25,0,0,1-.21.26l-3.9,1.08a.65.65,0,0,1-.39,0l-3.75-1.09c-.16-.05-.25-.11-.26-.3-.07-.87-.14-1.75-.23-2.62,0-.23,0-.32.28-.31q.74,0,1.47,0c.25,0,.31.09.32.31s.05.71.07,1.07a.27.27,0,0,0,.24.29l1.94.53a.65.65,0,0,0,.39,0c.6-.18,1.2-.38,1.81-.54a.36.36,0,0,0,.3-.38c0-.69.08-1.38.14-2.07,0-.27-.07-.32-.32-.32H15.81c-.32,0-.45-.06-.45-.4a12.44,12.44,0,0,0-.09-1.37.32.32,0,0,1,.24-.38c1.43-.59,2.85-1.2,4.27-1.8a.59.59,0,0,0,.31-.18.72.72,0,0,0-.38,0c-1.42,0-2.83,0-4.25,0-.29,0-.42-.05-.45-.38a11.58,11.58,0,0,0-.21-1.42c0-.2,0-.26.23-.26l9.89,0C25.14,17.08,25.17,17.16,25.15,17.35Z" transform="translate(0.02 -0.08)"/></svg>