<svg id="Layer_1" data-name="Layer 1" xmlns="http://www.w3.org/2000/svg" viewBox="0 0 40 40"><defs><style>.cls-1{fill:#f6de1e;}.cls-2{fill:#333;}</style></defs><rect class="cls-1" width="40" height="40" rx="16"/><path class="cls-2" d="M13.25,29.84l1.95-1.53a1.9,1.9,0,0,0,1.6,1.24c.93,0,1.43-.49,1.43-2.12v-8h2.86v8.27c0,2.45-1.23,4.47-3.9,4.47A4.13,4.13,0,0,1,13.25,29.84Z" transform="translate(0.01 0.1)"/><path class="cls-2" d="M23,30.34l1.62-2.07a4.66,4.66,0,0,0,2.89,1.28c1.06,0,1.56-.42,1.56-1.09s-.66-1-1.68-1.41l-1.52-.67A3.66,3.66,0,0,1,23.46,23c0-2.1,1.79-3.78,4.32-3.78a5.39,5.39,0,0,1,3.87,1.64L30.23,22.7a3.74,3.74,0,0,0-2.45-1c-.88,0-1.42.37-1.42,1s.75,1,1.8,1.39l1.49.63A3.43,3.43,0,0,1,32,28.22c0,2.09-1.67,3.92-4.55,3.92A6.51,6.51,0,0,1,23,30.34Z" transform="translate(0.01 0.1)"/></svg>