<svg id="Layer_1" data-name="Layer 1" xmlns="http://www.w3.org/2000/svg" viewBox="0 0 40 40"><defs><style>.cls-1{fill:#d46ea3;}.cls-2{fill:#fdfafc;}</style></defs><rect class="cls-1" width="40" height="40" rx="16"/><path class="cls-2" d="M18.81,21.61c.13,0,.21-.12.33-.1.29,0,.55.18.42.61A24.08,24.08,0,0,0,19,24.49,1.14,1.14,0,0,0,19,25a1.1,1.1,0,0,0,.26-.4c.5-1,.94-2,1.39-3a11.17,11.17,0,0,0,.8-2.08.24.24,0,0,1,.18-.18,2,2,0,0,1,1-.08c.26.06.32.16.23.4a3.2,3.2,0,0,0-.19,1.76,3,3,0,0,0,.26.71c.05.11.1.09.16,0a12.41,12.41,0,0,0,1.45-3c.12-.5.2-.54.72-.59a2,2,0,0,1,.59,0c.26.06.33.16.24.41a5.41,5.41,0,0,0-.21.79,3,3,0,0,0,.46,2c.06.11.13.08.21,0a4.74,4.74,0,0,1,2.46-.41,3.06,3.06,0,0,1,2.62,1.55,1.75,1.75,0,0,1,0,1.88,1.62,1.62,0,0,1-.81.65c-.09,0-.21.09-.27,0s.07-.16.14-.21a1.43,1.43,0,0,0,.64-.81A1.41,1.41,0,0,0,31,23.09a2.75,2.75,0,0,0-1.72-.85,4.62,4.62,0,0,0-2.39.16c-.11,0-.19.06-.13.21.41,1.12-.08,1.82-1.05,2.4a3.29,3.29,0,0,1-.8.33.62.62,0,0,1-.82-.75,3,3,0,0,1,.73-1.47,5.71,5.71,0,0,1,.55-.55c.06-.05.13-.1.07-.19a5.68,5.68,0,0,1-.6-1.81l-.34.63a18.73,18.73,0,0,1-1,1.66.29.29,0,0,0,0,.3,2,2,0,0,1,0,1.77,2.22,2.22,0,0,1-1.16,1,3.05,3.05,0,0,1-1.07.26c-.24,0-.51,0-.64-.22s0-.45.15-.64c.4-.49.79-1,1.22-1.47a.71.71,0,0,0,.1-1,4.51,4.51,0,0,1-.48-1.52.8.8,0,0,0-.17.33,31.88,31.88,0,0,1-2,4,2,2,0,0,1-.59.67.55.55,0,0,1-.89-.27A2.63,2.63,0,0,1,17.87,25a.4.4,0,0,0,0-.23l-.31.68a7.79,7.79,0,0,1-.5.95.87.87,0,0,1-1.49,0,3.8,3.8,0,0,1-.48-2.49c.06-.37.14-.74.25-1.16l-.76.43a1.58,1.58,0,0,0-.49.31c-.12.17.09.35.13.53A4,4,0,0,1,11,29a3,3,0,0,1-1.36-.09,1.22,1.22,0,0,1-.71-.76,2.35,2.35,0,0,1,.45-2.42,7.68,7.68,0,0,1,2.06-1.66c.36-.21.72-.41,1.09-.59.14-.07.16-.12,0-.23-.59-.47-1.24-.87-1.85-1.31a9,9,0,0,1-2.08-2A2.63,2.63,0,0,1,8,18.15a4,4,0,0,1,.63-1.66A8.78,8.78,0,0,1,11.05,14a16.51,16.51,0,0,1,5.72-2.69,7.53,7.53,0,0,1,4.26.1,3.12,3.12,0,0,1,1.61,1.13,2.38,2.38,0,0,1,.43,1.65,5.35,5.35,0,0,1-2.81,4.1,7.4,7.4,0,0,1-3.25,1,5.39,5.39,0,0,1-1.92-.09,2.41,2.41,0,0,1-1.43-.94.84.84,0,0,1-.17-.4c0-.07,0-.13.07-.16a.14.14,0,0,1,.16,0,3,3,0,0,0,2.81.72A7.16,7.16,0,0,0,20,17a4.5,4.5,0,0,0,1.65-2.21,2.11,2.11,0,0,0,.08-.79,1.49,1.49,0,0,0-1.25-1.28,5.89,5.89,0,0,0-2.92,0,13.74,13.74,0,0,0-6.66,3.5A3.68,3.68,0,0,0,9.85,18a2.37,2.37,0,0,0,.53,2.16,11.43,11.43,0,0,0,1.85,1.62,10.31,10.31,0,0,1,1.18,1,.2.2,0,0,0,.3,0c.68-.38,1.37-.75,2.06-1.12.2-.1.3-.29.44-.44a4,4,0,0,1,1.25-.95,1.32,1.32,0,0,1,.48-.13.76.76,0,0,1,.89.8A2.52,2.52,0,0,1,18.81,21.61Zm-5.45,3.07a3.9,3.9,0,0,0-.07-.65c0-.18-.1-.17-.22-.09-.32.22-.66.41-1,.63a5.76,5.76,0,0,0-1.35,1.16,2.09,2.09,0,0,0-.51,1.39.51.51,0,0,0,.54.53,1.23,1.23,0,0,0,.33,0A3,3,0,0,0,13.36,24.68Zm2.89-.36a3.18,3.18,0,0,0,.05.62c0,.15,0,.36.23.39s.25-.18.33-.31a9.54,9.54,0,0,0,.55-1.27,14.06,14.06,0,0,0,.77-2.38c0-.09.05-.2,0-.27a.3.3,0,0,0-.29,0,1.32,1.32,0,0,0-.58.44A4.57,4.57,0,0,0,16.25,24.32Zm9.56-1.38A2.8,2.8,0,0,0,25,24.21c0,.12-.13.27,0,.35s.22,0,.32-.1A1.24,1.24,0,0,0,25.81,22.94ZM22.63,24c-.35.43-.71.84-1.09,1.24,0,0-.06.07,0,.11s.07,0,.11,0a1.67,1.67,0,0,0,.47-.31A1.29,1.29,0,0,0,22.63,24Z" transform="translate(0.04 -0.02)"/></svg>