<svg id="Layer_1" data-name="Layer 1" xmlns="http://www.w3.org/2000/svg" viewBox="0 0 40 40"><defs><style>.cls-1{fill:#001e36;}.cls-2{fill:#31a8ff;}</style></defs><rect class="cls-1" width="40" height="40" rx="16"/><path class="cls-2" d="M11.9,13.86h4.18c2.62,0,4.79,1,4.79,4.06s-2.2,4.29-4.71,4.29H14.77v4.15H11.9Zm4.12,6c1.39,0,2.06-.69,2.06-1.92s-.77-1.69-2.14-1.69H14.77v3.61Z" transform="translate(0 -0.02)"/><path class="cls-2" d="M21.69,25.25,23,23.38a3.76,3.76,0,0,0,2.3,1c.75,0,1.07-.29,1.07-.76s-.87-.84-1.8-1.22c-1.09-.46-2.37-1.23-2.37-2.81,0-1.81,1.41-3,3.52-3a5.14,5.14,0,0,1,3.26,1.23l-1.28,1.78a3.41,3.41,0,0,0-1.89-.81c-.64,0-1,.24-1,.69s.84.79,1.78,1.14c1.14.46,2.4,1.15,2.4,2.88s-1.31,3.12-3.79,3.12A5.73,5.73,0,0,1,21.69,25.25Z" transform="translate(0 -0.02)"/></svg>