<svg id="Layer_1" data-name="Layer 1" xmlns="http://www.w3.org/2000/svg" viewBox="0 0 40 40"><defs><style>.cls-1{fill:#415af9;}.cls-2{fill:#ec6826;}.cls-3{fill:#f59534;}.cls-4{fill:#fbbb37;}.cls-5{fill:#fecd33;}.cls-6{fill:#f59635;}.cls-7{fill:#fbbc38;}.cls-8{fill:#fbba37;}.cls-9{fill:#f59433;}</style></defs><rect class="cls-1" width="40" height="40" rx="16"/><path class="cls-2" d="M31.91,16.74a5,5,0,0,1-1.11,4A12.19,12.19,0,0,1,27.06,24c-.29.17-.34.31-.21.62a6,6,0,0,1,.61,2.31c0,.88-.51,1.22-1.33.9a7.24,7.24,0,0,1-2-1.38l-.27-.25c-.07.42-.14.8-.2,1.18a5.44,5.44,0,0,1-.44,1.42c-.45.89-1.14,1-1.72.14a6.14,6.14,0,0,1-.93-2.05c-.09-.34-.22-.45-.59-.39a12.23,12.23,0,0,1-4.63-.14l-.71-.19c-.38-.17-.77-.32-1.13-.52a3.33,3.33,0,0,1-1.45-1.38.15.15,0,0,1,.1,0,4.92,4.92,0,0,0,2.84.88,17.32,17.32,0,0,0,4.7-.49c.19,0,.27-.12.22-.34q-.2-1-.33-2a10.06,10.06,0,0,0-.26-1.63l-2-3.2-.85-1.75a9.69,9.69,0,0,1-.78-2.59c-.11-1,.47-1.42,1.36-1a6.34,6.34,0,0,1,1.75,1.2l.44.39c.11-.58.2-1.11.31-1.63A3.58,3.58,0,0,1,20.07,11a.84.84,0,0,1,1.5-.14A6.36,6.36,0,0,1,22.63,13l.14.44-.48.11a8.86,8.86,0,0,0-.87-2.11c-.14-.23-.29-.54-.6-.51s-.38.35-.48.59a9.66,9.66,0,0,0-.54,2.71,19.86,19.86,0,0,0-.08,2.18,20.25,20.25,0,0,0,.08,2.81A3.3,3.3,0,0,0,20,20.59a3.21,3.21,0,0,0,.63,1c.53.72,1.09,1.43,1.65,2.14.09.11.17.22.37.15a33.27,33.27,0,0,0,3.08-1.28A18.56,18.56,0,0,0,30,19.9a6.15,6.15,0,0,0,1.76-2.25C31.85,17.35,31.79,17,31.91,16.74Zm-12.69-.07.06-2.24a2.36,2.36,0,0,0-.61-.65,5.85,5.85,0,0,0-1.8-1.24c-.42-.16-.65,0-.62.43A5.86,5.86,0,0,0,17,15.5a7.23,7.23,0,0,0,.79,1.66,17.24,17.24,0,0,0,1.49,2.47C19.27,18.63,19.21,17.65,19.22,16.67ZM23.41,26c0-.28,0-.29-.19-.23a20.49,20.49,0,0,1-2.08.55c-.12,0-.2.06-.14.23a8.29,8.29,0,0,0,.86,2c.13.2.27.46.53.44s.39-.31.49-.54A8.61,8.61,0,0,0,23.41,26Zm3.56.73a7.21,7.21,0,0,0-.64-2.11c0-.14-.13-.12-.24-.06a17.74,17.74,0,0,1-2,.89c-.1,0-.18.08-.07.19a8,8,0,0,0,2.28,1.74C26.8,27.6,27,27.45,27,26.74Zm-6.91-5.06c0,.95.27,1.76.37,2.6,0,.18.14.23.33.17a5.47,5.47,0,0,1,.9-.26c.21,0,.24-.14.09-.31s-.39-.48-.58-.73Z" transform="translate(0.01 0.04)"/><path class="cls-3" d="M31.91,16.74c-.12.29-.06.61-.19.91A6.15,6.15,0,0,1,30,19.9a18.56,18.56,0,0,1-4.24,2.69,33.27,33.27,0,0,1-3.08,1.28c-.2.07-.28,0-.37-.15-.56-.71-1.12-1.42-1.65-2.14a3.21,3.21,0,0,1-.63-1l.11-.08,5.61-2c1.49-.54,3-1.1,4.47-1.63a8.93,8.93,0,0,1,1.61-.53A1.26,1.26,0,0,1,31.91,16.74Z" transform="translate(0.01 0.04)"/><path class="cls-4" d="M31.79,16.32a8.93,8.93,0,0,0-1.61.53c-1.5.53-3,1.09-4.47,1.63l-5.61,2-.11.08a3.3,3.3,0,0,1-.19-1.39,20.25,20.25,0,0,1-.08-2.81,34.32,34.32,0,0,1,3.73-1.17,18.53,18.53,0,0,1,2.76-.48,12.62,12.62,0,0,1,2.46,0,6.8,6.8,0,0,1,2.13.53c.24.11.38.35.64.39A1.85,1.85,0,0,1,31.79,16.32Z" transform="translate(0.01 0.04)"/><path class="cls-5" d="M31.44,15.62c-.26,0-.4-.28-.64-.39a6.8,6.8,0,0,0-2.13-.53,12.62,12.62,0,0,0-2.46,0,18.53,18.53,0,0,0-2.76.48,34.32,34.32,0,0,0-3.73,1.17,19.86,19.86,0,0,1,.08-2.18c.83-.24,1.65-.5,2.49-.68l.48-.11A18.75,18.75,0,0,1,26,13.2a9.35,9.35,0,0,1,3.5.75A4.17,4.17,0,0,1,31.44,15.62Z" transform="translate(0.01 0.04)"/><path class="cls-5" d="M16.56,15.76l.85,1.75a.61.61,0,0,0-.39.13,17.77,17.77,0,0,0-3.26,2.1A8.13,8.13,0,0,0,12,21.66,5.13,5.13,0,0,0,11.55,23c0-.17-.06-.34-.07-.52a5,5,0,0,1,.35-1.79,5.7,5.7,0,0,0,.4-1v0l.08-.07A12.7,12.7,0,0,1,16.56,15.76Z" transform="translate(0.01 0.04)"/><path class="cls-6" d="M12.23,19.72a5.7,5.7,0,0,1-.4,1,5,5,0,0,0-.35,1.79c0,.18,0,.35.07.52l.14.56v.07c-.44,0-.81.32-1.26.35L8,21.23c1-.37,2-.73,2.93-1.06A7.8,7.8,0,0,1,12.23,19.72Z" transform="translate(0.01 0.04)"/><path class="cls-7" d="M10.43,24c.45,0,.82-.31,1.26-.35.12.14.12.36.28.49l.07.07h0l.08.07h0a3.33,3.33,0,0,0,1.45,1.38c.36.2.75.35,1.13.52l-4.07,1.51c-.25.09-.24,0-.23-.21C10.4,26.32,10.41,25.16,10.43,24Z" transform="translate(0.01 0.04)"/><path class="cls-6" d="M12.32,19.67l-.08.07C12.24,19.68,12.27,19.67,12.32,19.67Z" transform="translate(0.01 0.04)"/><path class="cls-3" d="M12,24.14c-.16-.13-.16-.35-.28-.49v-.07L14,22.73c1.49-.54,3-1.06,4.47-1.62a1.93,1.93,0,0,0,.9-.4,10.06,10.06,0,0,1,.26,1.63q.14,1,.33,2c.05.22,0,.3-.22.34a17.32,17.32,0,0,1-4.7.49,4.92,4.92,0,0,1-2.84-.88.15.15,0,0,0-.1,0h0L12,24.21h0S12.07,24.08,12,24.14Z" transform="translate(0.01 0.04)"/><path class="cls-4" d="M19.37,20.71a1.93,1.93,0,0,1-.9.4c-1.48.56-3,1.08-4.47,1.62l-2.31.85L11.55,23A5.13,5.13,0,0,1,12,21.66a8.13,8.13,0,0,1,1.73-1.92A17.77,17.77,0,0,1,17,17.64a.61.61,0,0,1,.39-.13Z" transform="translate(0.01 0.04)"/><path class="cls-5" d="M17,15.5a14.38,14.38,0,0,1,2.24-1.07l-.06,2.24a.84.84,0,0,0-.46.13,4.07,4.07,0,0,1-.93.36A7.23,7.23,0,0,1,17,15.5Z" transform="translate(0.01 0.04)"/><path class="cls-8" d="M17.83,17.16a4.07,4.07,0,0,0,.93-.36.84.84,0,0,1,.46-.13c0,1,.05,2,.1,3A17.24,17.24,0,0,1,17.83,17.16Z" transform="translate(0.01 0.04)"/><path class="cls-9" d="M20.06,21.68l1.11,1.47c.19.25.38.5.58.73s.12.29-.09.31a5.47,5.47,0,0,0-.9.26c-.19.06-.31,0-.33-.17C20.33,23.44,20.09,22.63,20.06,21.68Z" transform="translate(0.01 0.04)"/><path class="cls-2" d="M12,24.14c.1-.06,0,0,.07.07Z" transform="translate(0.01 0.04)"/><path class="cls-2" d="M12,24.21l.08.07Z" transform="translate(0.01 0.04)"/></svg>